<?xml version="1.0" encoding="UTF-8" standalone="no"?>
<!-- Created with Inkscape (http://www.inkscape.org/) -->

<svg
   width="609.65063mm"
   height="459.62445mm"
   viewBox="0 0 609.65063 459.62445"
   version="1.1"
   id="svg1"
   xml:space="preserve"
   inkscape:version="1.4.2 (ebf0e940, 2025-05-08)"
   sodipodi:docname="crow_drawing.svg"
   xmlns:inkscape="http://www.inkscape.org/namespaces/inkscape"
   xmlns:sodipodi="http://sodipodi.sourceforge.net/DTD/sodipodi-0.dtd"
   xmlns="http://www.w3.org/2000/svg"
   xmlns:svg="http://www.w3.org/2000/svg"><sodipodi:namedview
     id="namedview1"
     pagecolor="#ffffff"
     bordercolor="#000000"
     borderopacity="0.25"
     inkscape:showpageshadow="2"
     inkscape:pageopacity="0.0"
     inkscape:pagecheckerboard="0"
     inkscape:deskcolor="#d1d1d1"
     inkscape:document-units="mm"
     inkscape:zoom="0.023162177"
     inkscape:cx="1985.9964"
     inkscape:cy="1770.1272"
     inkscape:window-width="1424"
     inkscape:window-height="839"
     inkscape:window-x="0"
     inkscape:window-y="38"
     inkscape:window-maximized="0"
     inkscape:current-layer="layer1" /><defs
     id="defs1" /><g
     inkscape:label="Layer 1"
     inkscape:groupmode="layer"
     id="layer1"
     transform="translate(153.13652,157.06657)"><path
       style="fill:#000000"
       d="m 140.31736,302.34309 c -0.29104,-0.108 -1.62402,-1.07362 -2.96217,-2.14583 -3.06295,-2.45422 -5.12379,-3.50958 -5.53986,-2.83697 -0.20871,0.3374 -0.41526,0.11956 -0.72284,-0.76235 -0.23685,-0.67909 -0.42262,-1.31409 -0.41281,-1.41111 0.01,-0.097 -0.2787,-0.38409 -0.64114,-0.63795 -0.5752,-0.40289 -2.34076,-2.74299 -4.25138,-5.63486 -0.63967,-0.96819 -2.42362,-5.8966 -3.12225,-8.62564 -0.44121,-1.72351 -0.95658,-1.98773 -0.95658,-0.49042 0,0.46848 -0.25797,1.36889 -0.57326,2.00092 -0.36316,0.72796 -0.57327,2.04345 -0.57327,3.58921 0,3.3269 1.37069,10.76802 2.49397,13.53908 0.24402,0.60198 0.33678,1.37306 0.20613,1.71351 -0.20873,0.54396 -0.39749,0.47542 -1.55701,-0.56534 -2.23,-2.00161 -6.58362,-7.72323 -8.41724,-11.06212 -0.70862,-1.29035 -0.86612,-1.11319 -2.86898,3.22709 -0.57121,1.23782 -2.70615,2.60418 -3.20818,2.05322 -0.48722,-0.53472 -1.11258,-3.48911 -1.11258,-5.2562 0,-0.88206 -0.33131,-2.81139 -0.73625,-4.28742 -0.8038,-2.92987 -0.69548,-6.45291 0.22182,-7.2142 0.26309,-0.21834 0.66797,-0.9796 0.89973,-1.69168 0.23176,-0.71208 1.35113,-2.8481 2.48749,-4.74671 1.13636,-1.89861 2.0661,-3.51783 2.0661,-3.59829 0,-0.0804 0.47625,-0.85194 1.05834,-1.71442 0.58208,-0.86249 1.05833,-1.76056 1.05833,-1.99571 0,-0.24782 0.23839,-0.33607 0.56708,-0.20995 1.21886,0.46773 6.17321,-3.26718 7.05109,-5.31557 1.39672,-3.259 1.55405,-3.71425 1.55405,-4.49671 0,-0.45473 0.22303,-1.01188 0.49563,-1.23811 0.52791,-0.43813 1.42628,-4.77842 1.09875,-5.30838 -0.10713,-0.17333 -0.0172,-0.42488 0.19975,-0.55898 0.21699,-0.13411 0.64312,-0.81977 0.94696,-1.52368 0.52946,-1.22662 0.70549,-2.01261 1.4419,-6.43823 0.18151,-1.09085 0.52354,-2.34495 0.76006,-2.78689 0.24904,-0.46535 0.34939,-1.41227 0.23843,-2.24996 -0.11162,-0.84261 0.0164,-2.03552 0.30676,-2.85755 0.90622,-2.56597 0.72017,-3.19314 -1.3431,-4.52745 -1.01865,-0.65876 -2.32833,-1.69111 -2.91042,-2.2941 -0.58208,-0.603 -1.22371,-1.10076 -1.42585,-1.10615 -0.20214,-0.005 -1.06107,-0.71648 -1.90874,-1.58019 -0.84767,-0.86372 -1.87291,-1.61778 -2.27831,-1.6757 -0.49741,-0.0711 -0.77189,-0.40514 -0.84409,-1.02738 -0.11317,-0.9754 -1.44238,-1.85162 -2.30609,-1.52018 -0.26932,0.10335 -0.74402,-0.21653 -1.0782,-0.72655 -0.32836,-0.50115 -1.44459,-1.32687 -2.48049,-1.83492 l -1.88345,-0.92373 -1.18267,0.84213 c -0.65046,0.46317 -1.43679,0.79907 -1.74739,0.74645 -0.31061,-0.0526 -1.38442,0.46817 -2.38625,1.15732 -1.00184,0.68914 -1.82648,1.13129 -1.83253,0.98255 -0.006,-0.14874 -0.40564,0.36456 -0.88796,1.14067 -0.48233,0.77612 -0.83456,1.80799 -0.78274,2.29306 0.0709,0.66402 -0.0715,0.88237 -0.576396,0.88366 -0.740425,0.002 -1.2069,0.89354 -1.24488,2.37953 -0.01602,0.62698 0.157523,0.97014 0.490629,0.97014 2.144547,0 6.187357,9.82031 6.187357,15.02958 0,1.73275 -0.1451,2.1375 -1.21389,3.38614 -0.77019,0.8998 -1.35247,2.06433 -1.59302,3.186 -0.50434,2.35163 -1.24386,3.50276 -2.694788,4.19464 -0.660595,0.31501 -1.202282,0.47376 -1.203748,0.35278 -0.0015,-0.12098 -0.149557,-1.17247 -0.329092,-2.33664 -0.179535,-1.16416 -0.404867,-3.30729 -0.500737,-4.7625 -0.194525,-2.95266 -0.452312,-3.88055 -1.078101,-3.88055 -0.941453,0 -1.667864,0.9966 -2.188279,3.00221 -0.301563,1.16219 -1.026726,3.01425 -1.611475,4.11569 -0.879995,1.65758 -1.022281,2.2447 -0.825812,3.40759 0.159059,0.94146 0.07043,1.73558 -0.268663,2.4071 -0.564554,1.11803 -1.138274,8.78552 -0.678632,9.06959 0.158008,0.0977 0.326125,0.83577 0.373593,1.64025 0.07304,1.23788 -0.01042,1.44406 -0.543004,1.34149 -0.34612,-0.0667 -0.689067,-0.43149 -0.762106,-0.81075 -0.07304,-0.37926 -0.760138,-1.25056 -1.526889,-1.93623 -2.562685,-2.29168 -3.930693,-8.65282 -3.174526,-14.76133 0.611824,-4.94247 0.565147,-6.85102 -0.164049,-6.70773 -0.54906,0.1079 -1.294755,1.65646 -2.772957,5.75851 -0.349597,0.97014 -0.958879,3.93644 -1.353962,6.59179 -0.585849,3.93749 -0.639067,5.00187 -0.288551,5.77117 0.313322,0.68767 0.618261,0.89398 1.125344,0.76137 0.445393,-0.11647 0.695562,-0.006 0.695562,0.30753 0,0.26918 -0.396875,0.57182 -0.881944,0.67253 -0.48507,0.10071 -1.28019,0.26585 -1.766933,0.36698 -2.258241,0.4692 -4.435401,-2.3403 -4.92631,-6.35712 -0.285495,-2.33604 -1.076184,-4.20282 -1.634089,-3.85802 -0.204537,0.12641 -0.328948,1.38723 -0.288323,2.92195 l 0.07146,2.6996 -1.138239,-0.0553 c -1.332106,-0.0647 -2.494305,-1.05467 -3.746214,-3.19089 -2.921705,-4.98552 -3.56739,-10.03457 -1.829579,-14.30671 0.533253,-1.31092 1.446066,-3.0413 2.028473,-3.84529 0.582406,-0.80399 1.058921,-1.65912 1.058921,-1.9003 0,-0.24117 0.234275,-0.52839 0.520612,-0.63827 0.286337,-0.10987 0.84308,-0.8858 1.237208,-1.72427 0.979501,-2.0838 2.74078,-4.14866 3.538711,-4.14866 0.362478,0 0.761859,-0.16634 0.887513,-0.36966 0.125654,-0.20331 0.49221,-0.33766 0.81457,-0.29856 0.32236,0.0391 0.824234,-0.0213 1.115275,-0.13418 0.291042,-0.1129 1.599029,-0.37978 2.906639,-0.59305 3.523192,-0.57464 4.631368,-1.37566 6.049041,-4.37241 1.435008,-3.0334 3.159763,-9.17015 2.85085,-10.14345 -0.161212,-0.50794 -0.415046,-0.63738 -0.929607,-0.47407 -0.474503,0.1506 -0.934822,-0.019 -1.396402,-0.51442 -1.365578,-1.46578 -4.002434,-0.69884 -8.161836,2.37389 -1.111539,0.82114 -2.278096,1.88539 -2.59235,2.365 -0.641984,0.97979 -1.468072,1.13947 -1.773761,0.34286 -0.497627,-1.2968 -1.161164,-0.60725 -3.515134,3.65294 -1.46194,2.64579 -1.683821,2.89214 -2.168422,2.40754 -0.579181,-0.57918 -0.607374,-1.17566 -0.235875,-4.99041 0.149863,-1.53888 0.48744,-2.79328 0.902956,-3.35529 0.364987,-0.49367 0.735396,-1.27033 0.823132,-1.7259 0.08774,-0.45558 0.464969,-1.4857 0.838296,-2.28916 1.284649,-2.76477 1.286645,-4.66516 0.0057,-5.46509 -0.569661,-0.35576 -0.857084,-0.31559 -1.644698,0.22987 -0.524921,0.36353 -1.213609,0.75405 -1.530416,0.86782 -0.316808,0.11377 -1.340701,1.21117 -2.275319,2.43865 -2.520476,3.3103 -6.004558,6.63118 -7.209994,6.87226 -0.569443,0.11389 -1.217099,0.42607 -1.439236,0.69373 -0.222137,0.26765 -0.840408,0.48665 -1.373935,0.48665 -0.853759,0 -0.996262,-0.16392 -1.1887,-1.36737 -0.179754,-1.12412 0.02478,-1.89288 1.149742,-4.32152 1.101355,-2.37767 1.272912,-3.00922 0.879118,-3.23628 -1.027822,-0.59264 -0.0043,-4.25086 1.305658,-4.66663 0.80508,-0.25552 1.146681,-1.2012 0.520676,-1.44142 -0.272095,-0.10441 -0.896613,0.0735 -1.387818,0.39534 -0.491204,0.32185 -1.178717,0.52779 -1.527806,0.45764 -0.349088,-0.0701 -0.793456,-0.003 -0.987484,0.14881 -0.194028,0.15199 -1.305278,0.90567 -2.469445,1.67485 -1.671356,1.10428 -2.524868,2.03226 -4.056944,4.4109 -1.266815,1.96681 -2.108182,2.94836 -2.424017,2.82787 -0.266057,-0.1015 -0.893207,0.22493 -1.393667,0.72539 -0.631086,0.63109 -1.131486,0.84351 -1.632927,0.69319 -0.397651,-0.11921 -0.961126,-0.276 -1.252168,-0.34843 -0.291041,-0.0724 -0.547538,-0.14384 -0.569992,-0.15868 -0.02245,-0.0148 0.07592,-0.66541 0.218604,-1.4457 0.150112,-0.8209 0.117801,-1.50624 -0.07668,-1.62644 -0.18486,-0.11425 0.134264,-0.49378 0.709163,-0.84339 0.634357,-0.38578 1.509367,-1.54928 2.225824,-2.95968 0.649303,-1.2782 1.30337,-2.32401 1.453483,-2.32401 0.150112,0 0.272931,-0.37836 0.272931,-0.8408 0,-0.54411 -0.248965,-0.9059 -0.705556,-1.0253 -0.42396,-0.11087 -0.705555,-0.4812 -0.705555,-0.92788 0,-0.40885 -0.198438,-1.0984 -0.440972,-1.53233 -0.242535,-0.43393 -0.470469,-0.84492 -0.50652,-0.91331 -0.03605,-0.0684 -1.464802,0.50759 -3.175001,1.27995 -1.710198,0.77236 -4.24828,1.76611 -5.640181,2.20833 -2.29368,0.72873 -2.601381,0.93928 -3.284995,2.24783 -0.414846,0.79408 -1.604203,2.39331 -2.643015,3.55384 -1.831747,2.04637 -1.909527,2.09125 -2.577206,1.48701 -0.567937,-0.51398 -0.941902,-0.5661 -2.136219,-0.29776 -2.835997,0.63721 -2.828094,-1.12958 0.01814,-4.0544 1.256401,-1.2911 1.789986,-2.13482 1.852477,-2.92921 0.06048,-0.76879 0.53948,-1.56301 1.540296,-2.55392 0.798887,-0.79098 1.552365,-1.75273 1.674397,-2.13721 0.478273,-1.50691 -1.665667,-2.3275 -6.553419,-2.50832 -2.468515,-0.0913 -2.770416,-0.0195 -4.504767,1.07141 -1.022414,0.64311 -2.019128,1.16929 -2.214922,1.16929 -1.083417,0 -4.568637,2.20887 -5.266271,3.33766 -0.9894166,1.60091 -1.6762619,1.63874 -1.4945581,0.0823 0.089655,-0.76797 -0.054988,-1.32477 -0.4236158,-1.6307 -0.7607813,-0.63139 -0.7042068,-1.34311 0.1277541,-1.60716 0.3781305,-0.12001 0.7932515,-0.56727 0.922491,-0.99391 0.1292395,-0.42664 0.5145258,-1.09321 0.8561908,-1.48126 0.747185,-0.84864 1.623019,-2.78206 1.917688,-4.23333 0.118187,-0.58209 0.262894,-1.26945 0.321572,-1.52747 0.05868,-0.25802 0.730518,-0.77715 1.492978,-1.15361 0.762461,-0.37646 2.021293,-1.07629 2.797404,-1.55516 0.776111,-0.47888 1.609548,-0.79818 1.852083,-0.70955 0.242535,0.0886 0.440972,-0.002 0.440972,-0.20138 0,-0.19939 0.15875,-0.26442 0.352778,-0.1445 0.194028,0.11991 0.352778,0.0657 0.352778,-0.12038 0,-0.18613 0.833438,-0.5343 1.852083,-0.77372 1.018646,-0.23942 2.288646,-0.6562 2.822223,-0.92619 0.533576,-0.26999 0.970139,-0.37976 0.970139,-0.24394 0,0.13581 0.396875,-0.12591 0.881944,-0.58161 0.48507,-0.45569 0.880941,-0.9993 0.879714,-1.20802 -0.0027,-0.45344 -1.94848,-1.6142 -2.705928,-1.6142 -0.293872,0 -0.994299,-0.32754 -1.556503,-0.72786 -0.562205,-0.40033 -1.181698,-0.62928 -1.376651,-0.50879 -0.194954,0.12048 -0.79135,-0.0179 -1.325325,-0.30741 -1.717089,-0.93113 -5.825927,-1.93447 -8.937981,-2.18259 -3.1692653,-0.25267 -3.9609168,-0.062 -5.4815454,1.32043 -0.651164,0.59197 -0.7760642,0.6092 -0.9590671,0.1323 -0.4055325,-1.0568 -3.2824663,-0.40353 -5.34782563,1.21434 -0.19402778,0.15199 -2.02164347,0.92612 -4.06136817,1.7203 -4.0138655,1.56281 -9.2939647,4.17307 -11.0623237,5.46875 -0.607248,0.44494 -2.453462,1.49639 -4.102698,2.33657 -5.109007,2.60271 -6.834302,3.57714 -8.113889,4.58264 -0.679097,0.53364 -2.107847,1.40461 -3.175,1.9355 -5.144753,2.5594 -8.710834,4.95256 -9.909974,6.65049 -0.66139,0.9365 -1.855999,2.60338 -2.654687,3.70417 -2.644546,3.64485 -8.324097,14.37543 -10.208644,19.28755 -1.438211,3.74874 -2.979474,9.36239 -2.979474,10.85196 0,0.73065 -0.151423,1.60411 -0.336496,1.94102 -0.185073,0.33692 -0.435478,1.8294 -0.556456,3.31663 -0.166331,2.04475 -0.388012,2.85613 -0.909208,3.32781 -0.633611,0.57341 -0.735097,0.57791 -1.257254,0.0558 -0.312404,-0.31241 -0.942377,-1.63857 -1.399939,-2.94704 -0.457563,-1.30847 -1.070144,-2.64226 -1.36129,-2.96397 -0.297878,-0.32915 -0.529358,-1.24831 -0.529358,-2.10198 0,-0.83437 -0.376885,-2.56812 -0.837522,-3.85277 -0.460638,-1.28466 -1.018616,-3.76449 -1.239953,-5.51074 -0.221336,-1.74625 -0.573196,-4.52438 -0.781911,-6.17361 -0.804735,-6.3589 0.424598,-20.15618 1.945689,-21.83722 0.280767,-0.3103 0.850025,-1.35792 1.265018,-2.32806 0.414992,-0.97014 1.066108,-2.0967 1.446923,-2.50346 0.380815,-0.40676 1.072023,-1.91489 1.536017,-3.35139 1.237929,-3.83256 1.887671,-5.5292 3.061446,-7.99423 0.578109,-1.21408 0.962895,-2.35015 0.855079,-2.5246 -0.216592,-0.35045 -0.715408,-3.33618 -1.256528,-7.52111 l -0.352752,-2.72813 1.588969,-2.47895 c 0.873934,-1.36343 1.58897,-2.78762 1.58897,-3.16487 0,-0.37725 0.357188,-1.06713 0.79375,-1.53306 0.436563,-0.46594 1.173679,-1.49051 1.638036,-2.27684 0.464357,-0.78632 1.393382,-2.03951 2.064501,-2.78485 0.671118,-0.74535 1.695895,-2.18948 2.277282,-3.20918 0.581386,-1.01971 1.240009,-1.97221 1.463607,-2.11667 0.648943,-0.41927 1.99338,-3.42582 1.99338,-4.45777 0,-0.51856 0.198438,-1.45367 0.440973,-2.07803 0.266247,-0.6854 0.440972,-2.83261 0.440972,-5.41913 0,-2.35617 0.09697,-4.1288 0.215489,-3.93918 0.11852,0.18963 0.316957,0.0804 0.440973,-0.24283 0.411252,-1.0717 0.233855,-2.79998 -0.480251,-4.67881 -0.852707,-2.24349 -0.937988,-3.77694 -0.194177,-3.49151 0.342992,0.13162 0.446148,0.0266 0.313499,-0.31904 -0.384254,-1.00134 0.892148,-0.11603 1.626045,1.12784 0.459302,0.77846 0.943443,1.18156 1.339174,1.11502 0.347162,-0.0584 0.581008,0.0898 0.531609,0.33675 -0.04851,0.24254 0.07056,0.44097 0.264583,0.44097 0.194028,0 0.352778,0.23813 0.352778,0.52917 0,0.29104 0.121106,0.52917 0.269124,0.52917 0.148019,0 0.425831,0.35718 0.617362,0.79375 0.466316,1.06289 1.800733,1.24569 2.104596,0.2883 0.126203,-0.39763 0.144924,-0.85975 0.0416,-1.02692 -0.103323,-0.16718 0.04013,-0.60517 0.318787,-0.9733 0.836366,-1.10493 0.60316,-3.38318 -0.723493,-7.06802 -0.817852,-2.27162 -1.186293,-3.82544 -1.061591,-4.47704 0.136024,-0.71075 -0.04856,-1.3199 -0.641379,-2.11667 -1.15253,-1.54902 -1.46691,-3.00856 -0.710552,-3.2988 0.321509,-0.12338 0.890963,-0.033 1.265453,0.2009 0.374489,0.23387 0.999601,0.32407 1.389136,0.20044 0.508606,-0.16143 0.756084,-0.0419 0.87796,0.4242 0.09334,0.35694 0.121891,0.73885 0.06344,0.84868 -0.346752,0.65155 3.938319,3.45566 5.36178,3.5087 0.291042,0.0108 1.164167,0.32644 1.940278,0.70133 1.941471,0.9378 2.540416,0.87437 3.165941,-0.33526 1.481569,-2.86504 -0.43725,-11.6132 -4.15891,-18.961043 -4.035442,-7.967363 -4.755326,-9.081745 -8.578968,-13.280269 -2.933718,-3.22135 -4.272156,-4.412573 -5.856508,-5.212351 -1.129535,-0.570188 -2.63798,-1.587813 -3.352098,-2.26139 -0.714118,-0.673578 -1.410128,-1.224686 -1.546688,-1.224686 -0.13656,0 -1.349684,-0.635 -2.695831,-1.411111 -1.346147,-0.776111 -2.614139,-1.411111 -2.817761,-1.411111 -0.203622,0 -1.165642,-0.535278 -2.137822,-1.189507 -0.97218,-0.654229 -2.377195,-1.300973 -3.122256,-1.437209 -0.745061,-0.136235 -1.736949,-0.494192 -2.204197,-0.795458 -0.467247,-0.301267 -1.737247,-0.748007 -2.822222,-0.992755 -1.084975,-0.244749 -2.845807,-0.769392 -3.91296,-1.165872 -3.465044,-1.287371 -12.353391,-2.693724 -11.847081,-1.874496 0.290642,0.470268 -2.017358,-0.673869 -2.340251,-1.160124 -0.141023,-0.212372 -1.153943,-0.352591 -2.293055,-0.31743 -1.357063,0.04189 -2.91049,-0.223953 -4.638221,-0.79375 -1.428776,-0.471203 -2.83411,-0.856733 -3.122964,-0.856733 -0.288854,0 -1.946701,-0.47625 -3.684104,-1.058333 -1.737402,-0.582084 -3.325026,-1.058334 -3.528052,-1.058334 -0.45518,0 -8.229885,-3.479941 -10.879605,-4.869687 -8.57721,-4.498646 -13.24098,-7.920101 -18.63417,-13.670493 -1.10183,-1.174807 -2.16208,-2.154736 -2.35611,-2.177619 -0.19402,-0.02288 -0.4468,-0.252303 -0.56173,-0.50982 -0.63588,-1.424868 -0.99306,-1.870597 -1.43699,-1.793244 -0.56221,0.09796 -1.37293,-1.621023 -1.60658,-3.406449 -0.0866,-0.662036 -0.42214,-1.603768 -0.74555,-2.092739 -0.32342,-0.48897 -1.40012,-2.88418 -2.39267,-5.322688 -0.99255,-2.438507 -2.35959,-5.783025 -3.03788,-7.432261 -1.45282,-3.532531 -2.96453,-7.521447 -4.87984,-12.8763894 -0.76338,-2.1343056 -1.52556,-4.1980556 -1.69373,-4.5861112 -0.49933,-1.15222729 -1.41962,-4.9233127 -2.71189,-11.1125001 -0.66844,-3.2014583 -1.44569,-6.8527083 -1.72721,-8.1138893 -0.28152,-1.26118 -0.60073,-3.362143 -0.70935,-4.668806 -0.10864,-1.306662 -0.37746,-3.211663 -0.59739,-4.233333 -0.26882,-1.248732 -0.31441,-3.534195 -0.13907,-6.972861 0.14345,-2.813403 0.38681,-7.734653 0.54078,-10.936111 0.43437,-9.030999 1.03555,-17.580785 1.41866,-20.17591 0.19167,-1.298347 0.34849,-3.15199 0.34849,-4.119207 0,-0.967217 0.32865,-3.397433 0.73034,-5.40048 1.06876,-5.329418 1.73073,-10.639025 1.75154,-14.048849 0.0101,-1.649236 0.16185,-3.712986 0.3373,-4.586111 0.17546,-0.873125 0.41905,-6.746875 0.54133,-13.05278 0.12229,-6.3059 0.2875,-11.67196 0.36715,-11.92457 0.0796,-0.25261 0.006,-0.37369 -0.16298,-0.26907 -0.16928,0.10463 -0.50384,-0.28307 -0.74345,-0.86154 -0.3554,-0.858 -0.3447,-1.19838 0.058,-1.8476 0.54913,-0.88525 0.61717,-9.46576 0.12061,-15.2103 -0.2158,-2.49653 -0.17211,-3.18769 0.21707,-3.43418 0.60205,-0.38132 1.04119,-0.40689 0.94147,-0.0548 -0.0412,0.14552 0.0957,0.58208 0.30416,0.97014 0.20851,0.38805 0.4739,1.65805 0.58974,2.82222 0.11583,1.16417 0.61024,3.49528 1.09867,5.18025 0.48842,1.68496 0.97932,4.06621 1.09085,5.29166 0.33427,3.67249 1.61323,9.84822 2.50703,12.10587 0.77762,1.96418 1.25305,3.9942 2.76775,11.81805 0.3193,1.64924 0.88823,4.427365 1.26431,6.173615 0.37607,1.74625 0.83397,4.841875 1.01756,6.879166 1.01169,11.226839 2.50775,21.171689 3.95374,26.281945 0.65728,2.322861 4.40298,9.661824 6.12179,11.994445 0.42891,0.582083 1.29055,2.07015 1.91475,3.306815 1.11095,2.201023 3.39249,4.946874 6.18148,7.439453 0.76813,0.686497 1.90273,1.777297 2.52132,2.423999 1.3437,1.404745 2.62993,1.429794 3.02447,0.0589 0.1396,-0.48507 0.43149,-2.786945 0.64864,-5.115278 0.21715,-2.328333 0.63527,-5.185833 0.92916,-6.35 0.29388,-1.164167 0.62037,-2.565836 0.72553,-3.11482 0.10515,-0.548984 0.40944,-1.081906 0.6762,-1.184271 0.26676,-0.102365 0.48502,-0.513821 0.48502,-0.914347 0,-0.400526 0.2499,-1.004367 0.55533,-1.341869 0.56668,-0.626175 2.38684,-5.446309 3.8523,-10.201638 0.87148,-2.827906 2.94497,-7.733964 4.08605,-9.667962 0.58817,-0.996858 1.222579,-2.861077 1.891818,-5.559108 0.08005,-0.322736 1.084351,-2.465861 2.231772,-4.7625 1.147422,-2.296639 2.27876,-4.953751 2.514086,-5.904692 0.553838,-2.238041 1.059437,-3.168649 2.919807,-5.374212 0.840403,-0.996341 2.608735,-3.182967 3.929627,-4.859171 1.320892,-1.6762 3.067142,-3.48039 3.880556,-4.0093 1.630219,-1.06004 2.68386,-2.14802 2.70192,-2.78998 0.0065,-0.22946 0.368924,-0.53001 0.805487,-0.66789 0.436562,-0.13788 1.4451,-0.78357 2.241194,-1.43488 0.796094,-0.65131 1.623947,-1.18419 1.839671,-1.18419 0.215725,0 0.562907,-0.31892 0.771516,-0.70871 0.208609,-0.38979 1.61211,-1.32856 3.118892,-2.08615 1.506782,-0.7576 2.95016,-1.63115 3.207506,-1.94124 0.445643,-0.53696 3.333038,-2.05424 4.07886,-2.14337 0.914764,-0.10932 5.57366,-2.76953 7.104693,-4.05676 0.943114,-0.79292 2.07194,-1.74027 2.508502,-2.1052 0.44596,-0.37279 0.79375,-1.06165 0.79375,-1.57216 0,-1.06251 0.273601,-1.15057 0.905055,-0.29128 0.426279,0.58009 0.514275,0.58177 1.457476,0.0277 0.940362,-0.55235 7.06832,-1.34637 10.414592,-1.34945 1.101204,-0.001 1.275271,0.0979 1.084066,0.61616 -0.125279,0.33955 -0.398109,0.73114 -0.606289,0.8702 -0.208181,0.13907 -0.378799,0.53372 -0.379152,0.87701 -4.03e-4,0.39168 -0.591699,0.90697 -1.5875,1.38345 -2.195677,1.0506 -6.923197,6.09644 -11.130604,11.88007 -2.200681,3.02513 -3.772303,5.04912 -8.272678,10.65385 -0.778983,0.97014 -1.813766,2.359204 -2.299519,3.086808 -0.485753,0.727604 -1.037954,1.322917 -1.227114,1.322917 -0.506281,0 -2.116845,2.668308 -3.193996,5.291666 -0.517841,1.261181 -1.73947,3.959931 -2.714732,5.997223 -3.15363,6.587833 -4.838814,11.271028 -5.395048,14.993056 -0.95448,6.386884 -1.436655,12.077955 -1.58412,18.697222 -0.09077,4.074583 -0.320176,8.202084 -0.509782,9.172222 -0.429377,2.196948 -0.67423,7.937501 -0.33856,7.937501 0.136615,0 0.339646,-0.277813 0.45118,-0.617362 0.584691,-1.780015 1.937077,-4.268247 2.828155,-5.203472 1.766059,-1.853554 4.082132,-5.070141 4.312979,-5.989911 0.122754,-0.489091 0.332684,-0.889256 0.46651,-0.889256 0.273965,0 1.791284,-1.535336 3.796457,-3.841538 0.740497,-0.851666 1.982581,-1.8212 2.760186,-2.15452 0.777604,-0.33332 1.544803,-0.668378 1.704885,-0.744573 0.160082,-0.07619 0.979445,-0.773535 1.820807,-1.549647 0.841362,-0.776111 2.561014,-2.204861 3.821449,-3.175 1.260435,-0.970138 2.387634,-2.116494 2.504886,-2.547456 0.197025,-0.724165 1.615967,-1.850469 1.615967,-1.282695 0,0.13839 0.785097,-0.88804 1.744661,-2.280954 0.959564,-1.392914 2.567324,-3.365869 3.5728,-4.384344 2.704143,-2.739102 3.20069,-3.514492 5.59115,-8.73094 3.185389,-6.951138 3.61277,-7.767219 3.956449,-7.554814 0.170884,0.105613 0.609123,0.09731 0.973863,-0.01846 0.498946,-0.158359 0.723464,-0.693092 0.906668,-2.159407 0.284926,-2.28047 2.186676,-6.609502 2.750487,-6.261047 0.233259,0.144161 0.299424,0.02611 0.171787,-0.306507 -0.114175,-0.297537 0.09697,-1.041791 0.469216,-1.653898 0.395687,-0.650655 0.676809,-1.756786 0.676809,-2.663043 0,-1.981951 0.271595,-2.666161 1.058333,-2.666161 0.871032,0 1.144393,0.83021 1.219665,3.704168 0.03557,1.358195 0.320923,3.793256 0.634112,5.411248 0.31319,1.617991 0.483478,3.165804 0.378419,3.439583 -0.105059,0.273779 -0.0125,0.49778 0.205683,0.49778 0.284259,0 0.351829,1.674853 0.238391,5.909028 -0.161115,6.01377 -0.842534,11.324725 -1.564648,12.194819 -0.21997,0.265048 -0.318224,0.563626 -0.218343,0.663507 0.09988,0.09988 -0.149852,1.514025 -0.554963,3.142541 -0.405112,1.628517 -0.893242,3.834064 -1.084736,4.901217 -0.191493,1.067153 -0.578137,2.361647 -0.859208,2.876653 -0.281071,0.515007 -0.511039,1.194971 -0.511039,1.511033 0,0.316062 -0.399549,1.363131 -0.887887,2.32682 -0.488338,0.963688 -0.812952,1.752161 -0.721365,1.752161 0.09159,0 -0.238477,1.071562 -0.733476,2.38125 -0.494999,1.309687 -1.445212,4.02324 -2.111584,6.030118 -0.666372,2.006877 -1.573888,4.388127 -2.016702,5.291666 -0.442813,0.90354 -1.017663,2.51284 -1.277443,3.576222 -0.25978,1.063383 -0.9244,2.889008 -1.476935,4.056945 -1.063464,2.247932 -1.227899,3.005466 -0.652386,3.005466 0.194028,0 0.352778,-0.15875 0.352778,-0.352778 0,-0.194028 0.207045,-0.352778 0.460099,-0.352778 0.917207,0 3.76565,-2.078726 3.564988,-2.601643 -0.137308,-0.357818 0.708652,-1.001477 2.851247,-2.169406 1.675564,-0.913351 3.223973,-1.94485 3.44091,-2.292221 0.290097,-0.46452 0.592977,-0.556096 1.145036,-0.346203 0.737761,0.280496 2.006732,-0.115256 5.745074,-1.791711 0.829809,-0.372126 2.113038,-0.676594 2.851621,-0.676594 0.738583,0 1.456301,-0.113423 1.59493,-0.252052 0.138629,-0.138629 1.207531,-0.286712 2.375338,-0.329074 1.167807,-0.04236 2.330721,-0.249177 2.584252,-0.459589 0.253532,-0.210413 0.679526,-0.302236 0.946653,-0.204052 0.267128,0.09818 2.311311,-0.09751 4.542631,-0.434886 3.7931768,-0.573521 6.7154124,-0.565007 9.96502873,0.02903 3.31944787,0.606807 4.23330357,0.712813 6.61552757,0.767393 1.4552084,0.03334 3.3448322,0.190508 4.1991637,0.349261 1.242408,0.230865 1.496168,0.19615 1.267752,-0.173434 -0.211596,-0.342371 -0.09289,-0.411686 0.458227,-0.267566 0.409093,0.10698 0.798427,0.03065 0.865186,-0.16963 0.06676,-0.200277 2.177808,-0.554401 4.69122,-0.786942 2.513413,-0.23254 4.82679,-0.537054 5.140839,-0.676695 0.403462,-0.179399 0.626666,-0.04102 0.760724,0.471613 0.252835,0.966843 0.883954,0.924825 1.024992,-0.06824 0.08246,-0.580601 0.387992,-0.825148 1.137781,-0.910675 0.563778,-0.06431 1.287746,-0.441341 1.608818,-0.837848 0.349417,-0.431511 1.000071,-0.720069 1.620783,-0.718799 0.570358,0.0012 1.43389,-0.273854 1.91896,-0.611158 0.485069,-0.337304 1.106226,-0.534696 1.380349,-0.438649 0.274122,0.09605 0.670997,-0.05148 0.881944,-0.327837 1.161459,-1.5216 2.987719,-2.320564 6.98786,-3.057091 1.270817,-0.23399 2.592114,-1.271726 7.330403,-5.757244 1.808655,-1.712169 3.741824,-3.127505 4.271776,-3.127505 0.197937,0 0.760983,-0.476675 1.251211,-1.059279 0.490229,-0.582604 1.026045,-0.976019 1.190702,-0.874255 0.164657,0.101763 0.943322,-0.465389 1.730368,-1.26034 1.302939,-1.316026 1.480765,-1.39559 1.987224,-0.889131 0.506458,0.506458 0.470601,0.737705 -0.400706,2.584202 -3.477182,7.368945 -5.313079,10.829668 -7.015135,13.223755 -1.067135,1.501015 -2.331283,3.48539 -2.809218,4.409722 -0.477935,0.924333 -1.870791,2.661812 -3.095236,3.861065 -1.224445,1.199254 -3.575639,3.502629 -5.224875,5.118611 -1.649236,1.615983 -4.264307,3.777977 -5.811269,4.804432 -2.447918,1.624266 -2.910952,1.813676 -3.570648,1.460617 -0.606309,-0.324487 -0.890599,-0.292914 -1.420676,0.15778 -0.364477,0.309895 -1.397087,1.079867 -2.294688,1.71105 -0.897602,0.631183 -3.358227,2.400043 -5.468056,3.930801 -4.496535,3.262399 -7.795478,4.893021 -11.8448521,5.854745 -2.7859626,0.661665 -8.05386095,2.606129 -10.3356462,3.81505 -0.5820834,0.308396 -1.3758334,0.6067647 -1.763889,0.6630418 -0.3880555,0.056277 -1.7797132,0.6129293 -3.0925725,1.237005 -1.8366985,0.8730859 -2.2594315,1.2060836 -1.8336126,1.4443838 0.3487124,0.1951493 0.7454526,0.1503147 1.0726254,-0.1212146 0.6658398,-0.5525979 1.08751,-0.1537192 0.5377578,0.5086916 -0.2297531,0.2768355 -1.1651876,0.5938049 -2.0787434,0.7043766 -0.9135558,0.1105716 -1.8662334,0.2318645 -2.1170614,0.2695398 -0.538066,0.080819 -2.662323,2.4181825 -2.418919,2.6615862 0.09193,0.091927 1.093902,-0.098205 2.226611,-0.4225168 1.132708,-0.3243115 2.6495208,-0.7573687 3.370694,-0.9623492 0.7211732,-0.2049806 1.2368917,-0.4929642 1.1460411,-0.6399636 -0.090851,-0.1469994 0.1476427,-0.1854659 0.5299852,-0.085481 0.3823425,0.099985 1.2020542,0.00509 1.8215814,-0.2108792 1.3304243,-0.4637884 1.6046514,-0.3269791 0.852412,0.4252603 -0.9245788,0.9245787 -0.6726557,1.4182526 0.6005622,1.1768745 3.9493292,-0.7487182 5.9466448,-1.2060919 6.1485308,-1.4079778 0.4294835,-0.4294835 -2.69903094,-0.349197 -3.14966663,0.080829 -0.42256771,0.403242 -2.78218557,0.00866 -2.63331307,-0.4403453 0.1489358,-0.4492007 8.5531511,-1.195133 14.07314,-1.2490886 3.655337,-0.03573 4.223904,0.1920413 4.896706,1.9616469 0.225177,0.5922601 0.59252,0.8279665 1.293372,0.8298961 0.538379,0.00148 2.010746,0.3219289 3.271926,0.7121037 1.261181,0.3901747 3.004867,0.8742039 3.874858,1.0756203 0.869991,0.2014165 1.856959,0.6152252 2.193261,0.9195748 0.338914,0.30671296 0.931117,0.46977082 1.328615,0.36582268 0.415628,-0.10868918 0.717274,-0.0160201 0.717437,0.22040494 3.01e-4,0.43579039 4.3345,0.59978931 4.754822,0.17991458 0.12555,-0.1254169 0.832682,-0.14696246 1.571404,-0.047879 0.881921,0.11829043 1.439278,0.0245836 1.623128,-0.27289212 0.194152,-0.31414478 0.116293,-0.39022478 -0.253953,-0.24814828 -0.79707,0.30586482 -3.858871,-0.431753 -4.927918,-1.1871842 -0.515022,-0.3639345 -1.104749,-0.6616991 -1.310505,-0.6616991 -0.205756,0 -0.544023,-0.3175 -0.751704,-0.7055555 -0.540978,-1.0108267 0.180926,-0.9206056 1.84145,0.2301384 0.760049,0.5267144 2.001893,0.9996237 2.841184,1.0819574 0.820038,0.080445 2.416799,0.4487963 3.548359,0.8185586 1.13156,0.3697622 2.163435,0.65059042 2.293056,0.6240626 0.129621,-0.0265278 0.65745,0.0706823 1.172955,0.21602244 0.565993,0.15957493 1.254559,0.0944528 1.73822,-0.16439484 0.440517,-0.2357573 1.372269,-0.4563574 2.070561,-0.4902223 1.112859,-0.05397 3.303579,-1.2152873 3.941091,-2.0892025 0.121268,-0.1662358 0.329074,-0.1265483 0.461792,0.088194 0.132719,0.2147428 0.08305,0.3904413 -0.110367,0.3904413 -0.19342,0 -0.329507,0.2942613 -0.302415,0.653914 0.03343,0.4437599 0.251438,0.6010428 0.678359,0.4894004 0.346006,-0.090483 0.909286,-0.050325 1.251734,0.089239 1.386252,0.5649635 3.430074,0.3935805 4.054373,-0.339976 0.346394,-0.4070168 0.612903,-0.5258249 0.617361,-0.2752161 0.0175,0.983638 1.323225,0.3801366 2.076207,-0.9596135 0.949767,-1.6898824 1.413707,-2.0471303 1.198844,-0.9231456 -0.213649,1.1176301 0.35033,1.3849514 2.303846,1.0920037 1.239506,-0.1858755 1.927101,-0.5499815 2.813521,-1.4898612 0.645215,-0.6841271 1.248974,-1.1680118 1.341687,-1.0752993 0.09271,0.092713 -0.07339,0.3693782 -0.369124,0.6148127 -0.630016,0.5228668 -0.715629,1.4181865 -0.135611,1.4181865 0.221145,0 0.627992,-0.2778125 0.904106,-0.6173611 0.34715,-0.4269039 0.556636,-0.4874342 0.679045,-0.196207 0.09736,0.2316349 0.404887,0.3337129 0.683393,0.2268401 0.956944,-0.3672137 0.498823,1.4140792 -0.922094,3.58533916 C 65.807587,0.54682743 64.694451,2.5136655 64.095806,3.753412 62.720434,6.601696 61.800307,7.8482295 60.202,9.0285086 59.503763,9.5441257 57.360638,11.66477 55.4395,13.741052 c -3.601927,3.892803 -4.725233,4.684415 -9.137423,6.439284 -1.358195,0.540198 -3.1435,1.374863 -3.967346,1.854811 -1.126601,0.656325 -2.30713,0.946711 -4.7625,1.171479 -1.79553,0.164366 -3.820224,0.480416 -4.499322,0.702334 -1.305488,0.426612 -6.343958,0.883822 -13.934722,1.26449 -2.836087,0.142226 -4.788038,0.398512 -5.115278,0.671623 -0.291042,0.242899 -0.899808,0.554754 -1.352813,0.693012 -0.682212,0.208211 -0.784079,0.412255 -0.593228,1.188254 0.656466,2.669186 4.866438,7.670388 7.639974,9.075845 1.565224,0.793159 4.805626,1.224749 4.411857,0.587617 -0.09152,-0.148088 0.415045,-0.208832 1.125708,-0.134989 4.684634,0.486772 6.473744,0.453542 7.121051,-0.132263 0.361144,-0.32683 0.864249,-0.520022 1.118011,-0.429316 0.253761,0.09071 0.758997,0.01144 1.122745,-0.176146 0.363749,-0.187587 1.500361,-0.331046 2.525805,-0.318797 1.227541,0.01466 2.010586,-0.15382 2.292252,-0.493207 0.54121,-0.652118 1.172019,-0.65136 2.437272,0.0029 0.937244,0.484668 1.014846,0.471131 1.192447,-0.208019 0.148176,-0.566623 0.37002,-0.675334 1.00847,-0.494182 1.221377,0.346551 3.111561,1.364145 3.111561,1.675131 0,0.470005 0.951707,0.296936 1.411111,-0.256612 0.553116,-0.666464 1.763889,-0.692073 1.763889,-0.03731 0,0.270522 -0.468821,0.993733 -1.041824,1.607135 -0.925732,0.991 -0.995939,1.215982 -0.630047,2.019027 0.362271,0.7951 0.309123,0.986876 -0.442083,1.595165 -0.469623,0.380278 -1.337039,1.45229 -1.927592,2.382249 -2.024002,3.187251 -5.126993,7.603798 -6.70507,9.543455 -0.868219,1.067152 -1.898026,2.771622 -2.288458,3.78771 -0.390432,1.016088 -1.274452,2.697744 -1.964488,3.737014 -0.690036,1.039269 -1.34905,2.5098 -1.464474,3.267845 -0.115424,0.758045 -0.523372,1.724104 -0.906551,2.146797 -1.095485,1.208455 -0.577712,1.866003 0.56754,0.720751 0.528065,-0.528065 1.10966,-0.960117 1.292434,-0.960117 0.182775,0 0.733175,-0.635 1.223113,-1.411111 0.489937,-0.776111 1.050957,-1.411111 1.246711,-1.411111 0.195753,0 0.540986,-0.406186 0.767183,-0.902636 0.569539,-1.250002 2.065387,-2.762474 5.570828,-5.632738 1.649236,-1.350399 3.157361,-2.627156 3.351389,-2.837239 0.194028,-0.210082 1.25931,-1.137981 2.367294,-2.061997 1.107984,-0.924016 2.11087,-1.98361 2.228634,-2.354654 0.117765,-0.371044 0.372549,-0.674626 0.566187,-0.674626 0.193638,0 1.810128,-0.809563 3.5922,-1.79903 1.782071,-0.989467 3.402033,-1.826851 3.599915,-1.860854 0.632842,-0.108743 4.217958,-2.062242 4.44927,-2.424369 0.322984,-0.505643 1.81105,1.09786 1.579294,1.701807 -0.212336,0.553339 0.191964,0.614578 1.857832,0.281405 1.531208,-0.306242 1.493061,-1.282908 -0.0441,-1.129019 -1.094232,0.109547 -1.151522,0.05444 -1.256018,-1.208134 -0.09999,-1.208179 0.325534,-1.762186 0.783883,-1.020561 0.312785,0.506096 4.100414,0.754271 4.804151,0.31478 0.491192,-0.306755 0.778467,-0.281555 1.249914,0.109644 0.336676,0.279368 1.341755,0.538839 2.233507,0.576602 0.891753,0.03776 2.75157,0.255736 4.132926,0.484385 2.436315,0.403271 2.594846,0.383572 5.291667,-0.657552 1.52906,-0.590302 4.022392,-1.709156 5.540736,-2.486342 1.518345,-0.777186 3.423345,-1.52339 4.233334,-1.65823 3.128215,-0.520758 5.083491,-1.798448 8.828692,-5.769174 0.80491,-0.853373 2.19245,-2.320432 3.08342,-3.260132 0.89098,-0.9397 1.53921,-1.789298 1.44051,-1.887997 -0.0987,-0.0987 0.0535,-0.179451 0.33817,-0.179451 0.28468,0 0.96236,-0.703614 1.50594,-1.563587 0.54359,-0.859973 1.22031,-1.652602 1.50382,-1.761398 0.28352,-0.108795 0.42506,-0.344122 0.31454,-0.522948 -0.11052,-0.178827 -0.0809,-0.378385 0.0658,-0.443464 0.14673,-0.06508 0.61603,-0.860307 1.0429,-1.767174 0.53472,-1.135997 1.02235,-1.68463 1.56776,-1.763889 0.55112,-0.08009 1.14284,-0.758133 1.94758,-2.231707 0.63577,-1.164167 1.1606,-2.337123 1.16627,-2.60657 0.006,-0.269447 0.62617,-1.777572 1.37886,-3.351389 1.46888,-3.0712907 4.40388,-11.49416611 4.10823,-11.78981352 -0.0984,-0.0984373 -0.034,-0.35371808 0.14329,-0.56729058 0.81272,-0.9792671 1.46972,-5.7326339 1.80253,-13.0411869 0.46411,-10.192283 0.72075,-13.403362 1.09034,-13.642624 0.16661,-0.107853 0.37057,-1.695353 0.45325,-3.527778 0.38007,-8.423418 0.66828,-11.941024 1.12447,-13.724551 0.27098,-1.05941 0.49269,-2.270336 0.49269,-2.690945 0,-0.714656 0.45159,-2.024605 1.5703,-4.555075 0.25734,-0.582084 0.57944,-1.427565 0.71578,-1.878849 0.36868,-1.220304 2.48778,-5.597868 3.83306,-7.918216 0.64922,-1.119775 1.97577,-2.78665 2.94789,-3.704167 0.97212,-0.917517 2.20831,-2.342901 2.74711,-3.167519 0.53879,-0.824618 1.19555,-1.499305 1.45947,-1.499305 0.26392,0 1.62778,-0.714375 3.0308,-1.5875 1.40303,-0.873125 2.75349,-1.5875 3.00105,-1.5875 0.24755,0 0.45009,-0.122228 0.45009,-0.271618 0,-0.461251 4.89925,-3.322303 5.28298,-3.085143 0.19881,0.12287 0.36147,0.04635 0.36147,-0.170034 0,-0.216389 0.67469,-0.70687 1.4993,-1.089958 0.82462,-0.383087 1.73744,-0.829241 2.02848,-0.991452 0.94822,-0.528491 2.94165,-1.144326 5.99051,-1.850667 1.64554,-0.381231 3.28102,-0.954801 3.6344,-1.274602 0.35337,-0.319801 1.22952,-0.618076 1.94699,-0.662835 2.75129,-0.171636 3.93814,-0.469293 4.63005,-1.161197 0.50378,-0.503781 1.16442,-0.712152 2.22337,-0.701263 1.89401,0.01948 7.88693,-0.582458 10.67885,-1.072591 6.59935,-1.158547 8.04834,-1.509179 10.15696,-2.457809 0.81659,-0.367366 1.88158,-0.756534 2.36665,-0.864817 0.48507,-0.108282 1.99319,-0.451476 3.35139,-0.762651 1.80674,-0.413944 2.63383,-0.464518 3.08201,-0.188458 0.76789,0.472979 1.08165,0.48262 0.79854,0.02454 -0.11991,-0.194028 0.0295,-0.352778 0.33196,-0.352778 0.30249,0 0.54999,-0.151557 0.54999,-0.336792 0,-0.185236 0.55639,-0.441173 1.23643,-0.568749 0.68004,-0.127576 1.87274,-0.692897 2.65046,-1.256269 1.05089,-0.761263 1.64493,-0.966357 2.31319,-0.798635 1.38985,0.34883 5.81916,-1.603637 7.1614,-3.156788 0.95106,-1.10051 4.42021,-3.760546 4.9044,-3.760546 0.16739,0 0.95346,-0.55563 1.74684,-1.23472 0.79337,-0.6791 1.65538,-1.2361 1.91558,-1.23779 0.2602,-0.002 1.0578,-0.5573 1.77245,-1.23472 0.71466,-0.67741 1.42903,-1.2324 1.5875,-1.2333 0.15848,-9e-4 1.5488,-1.02818 3.0896,-2.28285 2.24108,-1.82489 2.97039,-2.23882 3.6459,-2.06927 0.73274,0.1839 0.82881,0.1009 0.72631,-0.62757 -0.0964,-0.68493 0.093,-0.90165 1.02841,-1.17704 0.63059,-0.18565 1.14653,-0.51626 1.14653,-0.73471 0,-0.21844 0.67469,-0.93144 1.4993,-1.58444 0.82462,-0.653 1.64273,-1.43364 1.81801,-1.73474 0.17529,-0.3011 1.97676,-2.23879 4.00327,-4.30598 3.01587,-3.0764 3.64166,-3.89367 3.44819,-4.50326 -0.29803,-0.93899 0.88541,-2.93521 2.05641,-3.46876 0.46644,-0.21252 1.38315,-1.05403 2.03714,-1.87002 0.65399,-0.816 1.54775,-1.82031 1.98614,-2.23181 3.92188,-3.68137 5.02376,-4.89738 5.02376,-5.54416 0,-0.97044 1.85751,-4.95672 2.59487,-5.56868 0.34612,-0.28725 0.58013,-1.00545 0.58013,-1.78044 0,-0.98965 0.29057,-1.6162 1.22021,-2.63113 0.95607,-1.04379 1.1789,-1.53866 1.02939,-2.28619 -0.15072,-0.75361 0.24141,-1.59827 1.8666,-4.02067 1.13158,-1.68665 2.16926,-3.07014 2.30596,-3.07442 0.1367,-0.004 0.62819,0.37187 1.0922,0.83588 l 0.84366,0.84366 -0.67074,1.71398 c -1.60332,4.09702 -2.39561,6.43129 -2.39561,7.05803 0,0.36991 -0.26716,1.05399 -0.59368,1.52017 -0.32653,0.46618 -0.6452,1.33494 -0.70816,1.93058 -0.26765,2.53212 -0.84743,4.91258 -1.82615,7.49776 -0.98788,2.60941 -4.24224,11.41161 -5.78015,15.63383 -0.3887,1.06715 -0.83601,2.89278 -0.99403,4.05695 -0.69086,5.08993 -1.08206,6.2908 -4.61456,14.16522 -1.14184,2.545334 -1.99187,3.993979 -2.40731,4.102618 -0.3532,0.09237 -1.57135,1.319774 -2.707,2.727573 -3.28416,4.071218 -8.25362,9.664118 -8.92886,10.049031 -0.34038,0.194028 -3.14209,2.763987 -6.22602,5.71102 -5.67689,5.424892 -7.78112,7.194898 -10.01686,8.425841 -0.6791,0.373894 -1.35103,0.859214 -1.49317,1.078489 -0.14215,0.219276 -1.29031,1.013026 -2.55148,1.763889 -1.61237,0.959962 -2.29486,1.577959 -2.29919,2.081939 -0.005,0.546885 -0.40326,0.836704 -1.68186,1.222989 -0.92163,0.27844 -1.80655,0.467914 -1.9665,0.421054 -0.15994,-0.04686 -0.19026,0.07748 -0.0674,0.276317 0.12562,0.20326 -0.1028,0.361518 -0.52179,0.361518 -0.70751,0 -3.17694,1.684949 -3.17697,2.16771 -1e-5,0.413051 2.25064,-0.294166 5.07112,-1.593485 1.52794,-0.703879 3.05631,-1.27978 3.39639,-1.27978 0.34007,0 0.81594,-0.238125 1.05748,-0.529167 0.24155,-0.291042 0.81236,-0.529167 1.26849,-0.529167 0.77386,0 2.86932,-0.815987 5.19614,-2.023417 0.68391,-0.354898 2.30464,-0.538023 5.16604,-0.583711 2.68309,-0.04284 4.35535,-0.220834 4.69087,-0.499293 0.28677,-0.237996 1.69267,-0.504932 3.12424,-0.593191 1.43156,-0.08826 4.00508,-0.25062 5.71893,-0.360803 2.11269,-0.135824 3.04317,-0.08232 2.8896,0.166152 -0.12457,0.201567 -0.4566,0.366486 -0.73784,0.366486 -0.42302,0 -0.43523,0.121852 -0.0707,0.705555 0.5855,0.937547 1.1316,0.89075 1.59993,-0.137104 0.35476,-0.778632 0.5534,-0.834188 2.61426,-0.73116 1.22668,0.06132 3.02407,0.250204 3.99421,0.419732 0.97014,0.169527 2.31952,0.188724 2.99861,0.04266 0.6791,-0.146064 1.76321,-0.353751 2.40914,-0.461527 0.64593,-0.107775 1.45061,-0.343775 1.7882,-0.524444 0.33758,-0.180668 1.07909,-0.318006 1.64781,-0.305196 0.56871,0.01281 2.0659,-0.225462 3.32708,-0.529495 1.26118,-0.304032 2.84868,-0.626556 3.52777,-0.716719 2.56453,-0.340489 6.57476,-1.196422 7.243,-1.545926 0.38198,-0.199784 3.15513,-1.193952 6.16256,-2.209262 7.08386,-2.391518 7.6738,-2.69042 9.1594,-4.640802 1.39183,-1.827276 4.47083,-4.322886 4.75872,-3.857068 0.18996,0.307363 -1.43941,1.683679 -2.92403,2.4699 -1.08157,0.57278 -0.80783,0.793744 0.62767,0.506644 0.69134,-0.138268 1.38314,-0.597596 1.73204,-1.150005 0.40035,-0.633875 0.82766,-0.884422 1.37467,-0.806024 0.43657,0.06257 0.79375,-0.04534 0.79375,-0.239783 0,-0.194448 0.31767,-0.454365 0.70593,-0.577595 0.73387,-0.232921 1.61252,-1.503199 1.27394,-1.84177 -0.10668,-0.106679 -0.5902,0.06567 -1.0745,0.382991 -0.4843,0.317325 -1.24332,0.575464 -1.6867,0.573643 -0.6107,-0.0025 -0.35711,-0.260843 1.04592,-1.065469 1.01864,-0.584187 1.85208,-1.217698 1.85208,-1.407801 0,-0.190103 0.26988,-0.345641 0.59972,-0.345641 0.46645,0 0.50565,0.09407 0.17639,0.423333 -0.85408,0.854081 -0.46466,1.299589 1.07597,1.230957 0.95701,-0.04263 1.66604,-0.290089 1.96029,-0.684151 0.25353,-0.339549 0.61833,-0.617362 0.81067,-0.617362 0.40373,0 2.05198,-1.790194 2.06859,-2.246732 0.006,-0.168549 -0.53388,0.109263 -1.20004,0.617362 -1.4558,1.110395 -1.58258,1.128253 -1.51366,0.213203 0.0352,-0.467383 0.60127,-0.978293 1.65377,-1.492659 0.88014,-0.430126 1.71931,-0.745351 1.86483,-0.700499 0.14552,0.04485 0.26458,-0.06359 0.26458,-0.240971 0,-0.177385 0.75406,-0.813195 1.6757,-1.41291 0.92163,-0.599716 2.61309,-1.877508 3.75879,-2.839539 1.14571,-0.962031 2.20931,-1.67115 2.36355,-1.57582 0.15425,0.09533 0.47093,-0.188307 0.70374,-0.630304 0.23281,-0.441997 0.53286,-0.883006 0.66677,-0.98002 0.13391,-0.09701 0.70545,-0.814345 1.2701,-1.594071 0.56465,-0.779723 2.37601,-2.673153 4.02524,-4.207603 1.64924,-1.53446 3.23674,-3.13877 3.52778,-3.56512 0.29104,-0.42636 1.28313,-1.70794 2.20464,-2.84795 0.92151,-1.14002 1.67557,-2.21255 1.67569,-2.3834 1.3e-4,-0.17086 0.55585,-1.08404 1.23495,-2.02929 0.67909,-0.94526 1.23472,-1.81166 1.23472,-1.92535 0,-0.11369 0.45688,-1.19379 1.01528,-2.40022 0.5584,-1.20644 1.13169,-2.74024 1.27398,-3.40845 0.14229,-0.66822 0.50377,-1.49275 0.80329,-1.8323 0.58695,-0.66539 1.49356,-0.83261 1.49356,-0.27548 0,1.46997 -3.75646,10.52231 -6.00662,14.47479 -0.38662,0.67909 -1.40178,2.59272 -2.25592,4.25249 -0.85414,1.65978 -1.80511,3.22703 -2.11327,3.48278 -0.30817,0.25576 -0.5603,0.74498 -0.5603,1.08717 0,0.34218 -0.66962,1.624919 -1.48804,2.850513 -1.06014,1.587573 -1.45733,2.52111 -1.38125,3.24643 0.16433,1.566572 -0.59624,3.072284 -1.55187,3.072284 -0.84463,0 -2.41538,1.576426 -2.81018,2.820318 -0.1235,0.389103 -0.43476,0.707459 -0.69169,0.707459 -0.73228,0 -1.00793,1.702774 -0.37768,2.333025 0.80652,0.806513 0.67381,1.387987 -0.82053,3.59536 -0.74806,1.105014 -1.64506,2.564741 -1.99331,3.243838 -0.34826,0.679097 -1.043,1.869722 -1.54386,2.645833 -0.50086,0.776111 -1.07231,1.853131 -1.26988,2.393377 -0.19756,0.540246 -1.53311,2.566855 -2.96787,4.503576 -2.47248,3.337499 -2.63466,3.484185 -3.10681,2.810095 -0.63171,-0.901898 -1.2265,-0.903781 -1.78738,-0.0057 -0.24235,0.388056 -0.58838,0.705556 -0.76897,0.705556 -0.52187,0 -5.6629,4.986445 -5.6629,5.492618 0,0.251382 -0.30938,0.555252 -0.68751,0.675266 -0.37813,0.120014 -0.78042,0.510922 -0.89397,0.868685 -0.11355,0.357763 -0.99479,1.387879 -1.95832,2.289147 -0.96353,0.901268 -1.75187,1.73112 -1.75187,1.844117 0,0.112996 0.21304,0.02864 0.47343,-0.187465 0.26039,-0.216102 0.57691,-0.289431 0.70339,-0.162952 0.12648,0.126479 0.54941,-0.05913 0.93985,-0.412472 0.39043,-0.353338 0.79663,-0.555681 0.90266,-0.449651 0.10603,0.10603 -0.34195,0.523264 -0.99551,0.927188 -0.65357,0.403923 -1.47058,1.046325 -1.81559,1.42756 -0.34502,0.381235 -0.86171,0.603204 -1.14821,0.493263 -0.30602,-0.11743 -1.05638,0.303864 -1.81894,1.021245 -1.98308,1.865608 -4.10527,3.415607 -5.44013,3.973348 -0.66315,0.277081 -1.38755,0.722864 -1.60977,0.990629 -0.22223,0.267765 -1.79709,1.143588 -3.4997,1.946274 -2.83901,1.33844 -3.35666,1.464915 -6.24411,1.525602 -2.82503,0.05937 -3.24073,-0.01601 -4.04666,-0.733869 -0.82185,-0.732043 -1.004,-0.761708 -2.1432,-0.349032 -0.7145,0.258829 -3.19919,0.484694 -5.83112,0.530064 -4.80259,0.08279 -6.56342,-0.08396 -5.80916,-0.550114 0.73201,-0.452405 0.0102,-1.051117 -1.26722,-1.051117 -1.11039,0 -1.2139,0.08918 -1.2139,1.045921 0,1.201977 1.0194,1.94817 2.16482,1.584629 0.60293,-0.191362 0.68963,-0.11286 0.50787,0.459817 -0.13331,0.420041 -0.004,0.868796 0.32898,1.145507 0.4563,0.378694 0.62706,0.347026 1.019,-0.188976 0.41661,-0.569754 0.59743,-0.591469 1.57013,-0.188561 0.60462,0.25044 1.35833,0.355946 1.67493,0.234459 0.31659,-0.121488 1.51269,0.120787 2.658,0.538388 1.93552,0.705726 2.12747,0.718471 2.72169,0.180712 0.88132,-0.79759 1.18235,-0.736526 2.34343,0.475377 0.55535,0.579667 1.53755,1.15296 2.18266,1.273983 0.64512,0.121024 1.17293,0.379641 1.17293,0.574705 0,0.195064 0.31772,0.271576 0.70605,0.170028 0.38832,-0.101549 0.63397,-0.06802 0.54588,0.07451 -0.20774,0.336128 2.79543,2.850055 3.40471,2.850055 0.25592,0 0.6691,0.326318 0.91818,0.725151 0.24907,0.398833 0.72382,0.683806 1.05499,0.633274 0.33118,-0.05053 0.93845,0.09381 1.3495,0.32077 0.41106,0.226956 0.82092,0.339097 0.91082,0.249203 0.0899,-0.08989 0.37609,0.233901 0.636,0.719548 0.25992,0.485647 0.6438,0.850694 0.85308,0.811216 0.20929,-0.03948 1.25364,0.34944 2.32079,0.86426 1.06716,0.514821 2.09903,0.953721 2.29306,0.975334 0.5446,0.06066 1.20834,1.468293 1.22222,2.592053 0.009,0.709511 0.42067,1.394342 1.37918,2.293056 2.27987,2.137639 5.01392,4.416325 6.19352,5.161969 1.31798,0.83312 2.7299,2.089456 7.05299,6.275812 3.3297,3.224389 3.60077,3.422612 7.08265,5.1793214 2.24323,1.1317792 3.73536,1.319084 5.35689,0.6724423 0.54621,-0.2178196 1.38998,-0.4416189 1.87505,-0.4973319 2.61472,-0.3003157 6.64899,-0.9543598 7.495,-1.2151058 0.56016,-0.172644 1.05242,-0.162935 1.16735,0.023026 0.10931,0.1768571 0.3878,0.3191275 0.61889,0.3161564 0.2575,-0.00331 0.21993,-0.1320352 -0.0971,-0.3325227 -0.41407,-0.2618867 -0.32156,-0.4015107 0.46394,-0.7001537 0.53963,-0.205168 1.09523,-0.373033 1.23466,-0.373033 0.13943,0 1.11114,-0.552539 2.15936,-1.227865 1.04821,-0.675325 1.98275,-1.150949 2.07676,-1.056942 0.39907,0.399075 -1.53338,1.888719 -2.97306,2.291806 -1.87023,0.523631 -2.03757,1.0513346 -0.3334,1.0513346 1.27246,0 5.06482,-1.6478086 6.33601,-2.7530396 1.91946,-1.668866 2.34879,-1.686364 6.35504,-0.259011 2.25044,0.80179 3.71873,1.514326 3.71873,1.804633 0,0.263845 0.19844,0.406993 0.44098,0.318107 0.24253,-0.08889 0.65053,-0.02797 0.90666,0.135365 0.71663,0.456996 -0.9658,2.7799657 -5.75736,7.9493488 -0.99039,1.0684914 -3.31087,2.86137498 -5.29166,4.0885344 -1.94028,1.2020582 -3.92466,2.5475039 -4.40973,2.9898793 -1.37032,1.2497137 -4.61078,3.3650723 -5.15486,3.3650723 -0.26927,0 -0.48958,-0.2415284 -0.48958,-0.5367298 0,-0.2952014 -0.38716,-0.7131314 -0.86036,-0.9287334 -0.74849,-0.3410367 -0.79436,-0.4579966 -0.35277,-0.8995797 0.27916,-0.2791669 0.49504,-0.8534245 0.47972,-1.2761278 -0.0153,-0.4227034 -0.10792,-0.5701141 -0.20579,-0.3275794 -0.0979,0.2425347 -0.36615,0.4409722 -0.59619,0.4409722 -0.23004,0 -1.52649,0.4634944 -2.88101,1.0299874 -1.35452,0.5664931 -3.09777,1.1428176 -3.87388,1.2807211 -0.77611,0.1379035 -1.59703,0.3978364 -1.82427,0.5776288 -0.53341,0.4220333 -6.90218,0.9697409 -7.2905,0.6269752 -0.16242,-0.1433729 -0.1074,-0.3768152 0.12227,-0.5187606 0.34441,-0.212861 4.63158,-0.9822648 7.5992,-1.3638048 0.93448,-0.1201436 1.56969,-0.5192526 1.56969,-0.9862553 0,-0.2326968 -0.36034,-0.2721047 -0.97014,-0.1060971 -2.27267,0.6186977 -4.41383,0.9129519 -8.73125,1.199913 -5.37265,0.3570976 -7.00399,0.063112 -11.76083,-2.1194213 -3.83651,-1.7602724 -4.4983,-2.1306491 -8.11224,-4.54010081 -6.61485,-4.41020169 -8.67029,-5.66411909 -9.2847,-5.66411909 -0.35522,0 -1.37376,-0.555625 -2.26342,-1.2347222 -0.88967,-0.6790973 -1.75475,-1.2347223 -1.92241,-1.2347223 -0.7441,0 0.78666,1.9158376 2.00675,2.5115787 0.74291,0.3627421 2.03293,1.2123441 2.86672,1.8880043 0.8338,0.6756603 1.7689,1.3700068 2.07801,1.5429924 0.3091,0.1729855 0.45196,0.4925924 0.31744,0.7102375 -0.17358,0.2808712 -0.36713,0.2866465 -0.66689,0.019899 -0.23227,-0.2067005 -1.0003,-0.7210575 -1.70672,-1.1430156 -0.70641,-0.4219581 -2.05579,-1.3724911 -2.99861,-2.1122957 -3.65094,-2.8647999 -7.01106,-5.1354615 -7.12325,-4.8136785 -0.3409,0.9776953 2.75376,4.8569615 8.26658,10.36246151 2.34775,2.34464069 4.33375,4.46629109 4.41333,4.71477889 0.0796,0.2484877 1.5718,1.9374229 3.31607,3.7531894 1.74426,1.8157662 3.80639,4.1013122 4.5825,5.0789902 0.77611,0.977678 1.61271,1.789055 1.8591,1.803061 0.24639,0.01401 1.07667,-0.371411 1.84507,-0.856481 1.98239,-1.251428 3.28764,-1.132657 6.17921,0.562272 3.23817,1.898097 4.08952,2.007663 6.85822,0.882638 1.23951,-0.503659 2.53442,-0.915743 2.87757,-0.915743 0.91653,0 1.16848,0.660478 0.52373,1.372924 -0.31005,0.342601 -0.56373,0.950613 -0.56373,1.351139 0,2.221849 5.33989,0.928499 7.21409,-1.747291 0.37797,-0.539633 0.72473,-0.65588 1.42911,-0.479091 0.71226,0.178764 1.27113,-0.0174 2.38654,-0.837682 0.80106,-0.589111 1.60473,-1.07111 1.78592,-1.07111 0.18119,0 0.23783,0.564492 0.12587,1.254428 -0.15793,0.973214 -0.0496,1.386212 0.48301,1.84229 0.37761,0.323325 0.68657,0.89342 0.68657,1.266878 0,1.055179 -2.17762,3.459905 -4.6156,5.096972 -2.74658,1.844279 -5.8443,2.824907 -9.80069,3.102547 -2.21231,0.155249 -3.86708,0.5294 -6.04482,1.366766 -2.49743,0.96029 -3.49979,1.157688 -5.99722,1.181054 -1.64924,0.01543 -3.83205,0.258663 -4.8507,0.540518 -1.01864,0.281855 -1.85208,0.389337 -1.85208,0.238849 0,-0.472462 -5.03506,-2.548615 -5.81792,-2.39896 -0.41021,0.07841 -0.94034,-0.06566 -1.17809,-0.320165 -0.23774,-0.254506 -0.86434,-0.554547 -1.39243,-0.666758 -1.79413,-0.381221 -4.48032,-1.71345 -7.31017,-3.625514 -3.24402,-2.191908 -4.40973,-3.187366 -4.40973,-3.765708 0,-0.224543 -0.83343,-0.943094 -1.85208,-1.59678 -1.01864,-0.653685 -2.97746,-2.029796 -4.35293,-3.058024 -1.37547,-1.028227 -2.67024,-1.869504 -2.87727,-1.869504 -0.20703,0 -1.74529,-1.45415 -3.41836,-3.2314436 -2.89022,-3.0702619 -5.91764,-7.286965 -8.04856,-11.2103408 -1.06746,-1.9653655 -2.0332,-2.5020567 -1.15067,-0.6394662 0.29878,0.6305903 0.34254,0.8515175 0.0973,0.4909494 -0.24529,-0.3605681 -0.76038,-1.0671149 -1.14464,-1.570104 -0.38426,-0.5029892 -1.06703,-1.709608 -1.51725,-2.6813751 -0.45023,-0.9717671 -1.35842,-2.4256398 -2.01822,-3.2308282 -0.95491,-1.1653445 -1.41884,-1.4561385 -2.2743,-1.4255465 -1.35986,0.04863 -1.44089,0.960813 -0.18255,2.0549239 0.68567,0.5961871 0.8458,0.9953976 0.6878,1.7147582 -0.11327,0.5157101 0.0378,2.8240262 0.33562,5.1295913 0.57416,4.4442186 0.67844,7.9418606 0.46681,15.6572146 -0.13447,4.902323 -0.54125,7.564905 -1.67079,10.936112 -0.35755,1.067152 -0.85481,2.932465 -1.105,4.145138 -0.40493,1.9626 -0.54754,2.204862 -1.29792,2.204862 -0.46365,0 -1.10658,-0.323827 -1.42872,-0.719615 -0.35485,-0.435967 -1.60572,-0.981365 -3.17346,-1.383677 -1.42325,-0.365234 -2.86451,-0.914532 -3.20278,-1.220663 -0.67856,-0.614097 -1.7942,-0.749696 -1.7942,-0.218075 0,0.352454 0.90177,1.273105 5.47626,5.590905 l 2.7313,2.578042 -0.6286,2.360847 c -0.34573,1.298466 -1.21903,3.551472 -1.94066,5.00668 -0.72163,1.455209 -1.42727,3.01635 -1.56808,3.469203 -0.1408,0.452853 -1.04473,2.189081 -2.00873,3.858285 -0.964,1.669204 -1.84301,3.48635 -1.95336,4.038103 -0.1795,0.897505 -1.56604,2.392743 -2.21879,2.392743 -0.1384,0 -0.53585,-0.630295 -0.88324,-1.400656 -0.34738,-0.77036 -0.92711,-1.668089 -1.2883,-1.994954 -0.36118,-0.326864 -0.65669,-0.806929 -0.65669,-1.066811 0,-0.259881 -1.15094,-1.575248 -2.55764,-2.923037 -4.5322,-4.342388 -6.69815,-5.263185 -4.61145,-1.960433 0.54752,0.866581 2.33012,3.718768 3.96134,6.338193 1.63123,2.619425 3.25842,5.027345 3.61598,5.350932 0.93631,0.847351 0.92818,4.368944 -0.0114,4.955749 -0.41896,0.261647 -0.89003,1.345477 -1.28462,2.955654 -0.51622,2.106475 -0.88326,2.80643 -2.14022,4.081436 -0.83443,0.84641 -1.80416,1.549665 -2.15496,1.562789 -0.35079,0.01312 -1.63396,1.188125 -2.85146,2.611114 -1.46995,1.718033 -2.76384,2.84587 -3.85128,3.357029 -2.23184,1.049088 -6.56919,2.121884 -8.57885,2.121884 -1.27852,0 -1.98656,0.24052 -3.11552,1.058333 -0.80354,0.582084 -1.56174,1.058334 -1.68488,1.058334 -0.12315,0 -1.59296,-0.540773 -3.26625,-1.201718 -4.32537,-1.708508 -7.16954,-2.103314 -11.70431,-1.624707 -4.96221,0.523719 -6.50407,0.647077 -11.3576,0.908678 -4.61267,0.248618 -5.81383,0.739018 -7.06739,2.885406 l -0.66676,1.141651 1.80897,3.71321 1.80896,3.713211 -0.23952,7.667551 -0.23952,7.667548 1.04612,2.18788 c 1.12646,2.35586 3.67672,5.39684 4.52596,5.39684 0.28705,0 0.48222,-0.19466 0.43371,-0.43259 -0.0485,-0.23793 0.24192,-0.48355 0.64539,-0.54582 0.52625,-0.0812 1.09957,0.35653 2.02847,1.54882 0.71219,0.91413 1.29489,1.56422 1.29489,1.44464 0,-0.11957 0.75406,0.0265 1.6757,0.32462 0.92163,0.29812 3.26319,0.91275 5.20347,1.36584 1.94028,0.4531 4.16278,1.00975 4.93889,1.23701 4.74025,1.38803 10.06731,1.71575 11.29723,0.695 0.40114,-0.33291 1.02474,-0.29886 2.89724,0.15818 1.64581,0.40171 4.46561,0.62407 9.08886,0.7167 4.61935,0.0926 7.19622,0.2956 8.29028,0.65325 2.08263,0.68083 4.49681,0.91279 12.17083,1.16942 5.06522,0.16939 6.77826,0.10369 8.46667,-0.32472 1.16417,-0.29539 4.09254,-0.64685 6.5075,-0.78102 2.41496,-0.13417 5.51058,-0.54192 6.87917,-0.90611 1.36858,-0.36419 2.80818,-0.6659 3.19911,-0.67047 0.39093,-0.005 1.26405,-0.30144 1.94028,-0.65972 0.67622,-0.35827 1.70575,-0.76749 2.28783,-0.90937 0.58208,-0.14187 2.16958,-0.78118 3.52778,-1.42067 1.35819,-0.6395 3.37534,-1.58791 4.48255,-2.10759 1.10722,-0.51968 2.5208,-1.37318 3.1413,-1.89666 2.97087,-2.50636 3.71526,-3.09619 4.3496,-3.44644 0.3765,-0.20789 0.83378,-0.84289 1.01617,-1.41111 0.58947,-1.83648 1.25539,-2.31746 2.87274,-2.07492 1.84459,0.27661 4.28265,-0.65698 5.07736,-1.94426 0.31885,-0.51647 2.21553,-2.43305 4.21484,-4.25906 4.05352,-3.702153 5.71349,-5.900208 5.71349,-7.565517 0,-0.645013 0.31605,-1.446958 0.75662,-1.919855 0.41614,-0.446673 1.17021,-1.618516 1.6757,-2.604093 0.5506,-1.073524 1.18378,-1.825372 1.57931,-1.875298 1.00671,-0.12707 2.54093,-1.778714 3.00734,-3.237524 0.30123,-0.94216 1.00222,-1.747099 2.5193,-2.89288 1.15607,-0.873125 2.58969,-2.333183 3.18583,-3.244574 0.59614,-0.91139 1.70818,-2.221078 2.47119,-2.910416 0.76302,-0.689339 1.31555,-1.253343 1.22786,-1.253343 -0.0877,0 0.31917,-0.964648 0.90414,-2.143662 0.97848,-1.972141 1.20938,-2.791107 1.33512,-4.735505 0.0763,-1.180411 0.56251,-1.645583 1.47939,-1.41546 0.81405,0.204312 0.84879,0.337573 0.85609,3.283652 0.004,1.688883 0.21532,4.224661 0.46919,5.635062 0.42875,2.381986 0.4113,2.670517 -0.24534,4.056944 -0.5208,1.099629 -0.71495,2.271058 -0.73744,4.449544 -0.0425,4.114767 -1.55818,8.970418 -3.67305,11.766954 -0.88641,1.172115 -3.75847,6.975261 -3.75847,7.594191 0,0.18706 -0.635,0.78016 -1.41111,1.318 -0.77611,0.53785 -1.41111,1.10211 -1.41111,1.25392 0,0.1518 -0.59531,0.91472 -1.32292,1.69536 -1.55991,1.67363 -3.11553,3.52332 -4.73635,5.6317 -0.64497,0.83898 -1.88705,2.28741 -2.76017,3.21873 -0.87313,0.93133 -2.50016,2.72545 -3.61562,3.98695 -1.43182,1.61927 -2.75427,2.67521 -4.49792,3.59147 -1.35839,0.71381 -2.4698,1.42935 -2.4698,1.59008 0,0.4345 -4.09934,3.78482 -7.58082,6.19568 -3.46081,2.39654 -7.43123,6.09487 -8.74467,8.1454 -1.20983,1.88877 -2.99835,3.53041 -4.55247,4.1786 -0.71433,0.29793 -1.38645,0.68353 -1.49358,0.85687 -0.29194,0.47237 1.86958,0.80054 2.62167,0.39803 0.35942,-0.19235 1.28955,-0.34973 2.06697,-0.34973 0.77742,0 1.5116,-0.15875 1.63151,-0.35278 0.11992,-0.19403 0.70264,-0.35278 1.29494,-0.35278 0.8706,0 3.86518,-1.34758 6.06743,-2.73037 0.21931,-0.13771 0.79562,-0.30358 1.28069,-0.36861 0.48507,-0.065 1.23913,-0.35052 1.67569,-0.63442 0.43657,-0.28391 0.79618,-0.39347 0.79916,-0.24348 0.003,0.14999 0.12203,0.10569 0.26458,-0.0984 0.30428,-0.43575 2.64991,-1.56912 3.24744,-1.56912 0.62557,0 5.6548,-2.14895 5.6548,-2.41625 0,-0.12856 0.46541,-0.43975 1.03424,-0.69154 0.56884,-0.25179 2.43415,-1.47351 4.14514,-2.71493 1.71099,-1.24142 3.47135,-2.51279 3.9119,-2.82526 0.44056,-0.31247 0.69384,-0.74154 0.56286,-0.95347 -0.13099,-0.21194 -0.0789,-0.28693 0.1157,-0.16665 0.19462,0.12029 0.68876,-0.0933 1.09809,-0.47466 0.40933,-0.38134 0.87878,-0.69335 1.04322,-0.69335 0.16445,0 0.84427,-0.40229 1.51071,-0.89398 0.66644,-0.49169 2.2411,-1.21192 3.49924,-1.60052 2.40492,-0.74281 3.62748,-1.62918 4.46349,-3.23613 0.44623,-0.85773 0.58663,-0.91807 1.23128,-0.52916 0.65758,0.3967 0.89751,0.25219 2.49262,-1.50132 2.91382,-3.20318 4.60225,-5.9932 4.37655,-7.23195 -0.25019,-1.3732 0.21926,-2.13518 1.08283,-1.75757 0.35913,0.15704 0.8046,0.29923 0.98995,0.31599 0.18534,0.0168 0.46819,0.66198 0.62856,1.43382 0.16036,0.77185 0.52466,1.5338 0.80954,1.69323 0.78707,0.44047 0.62481,1.47066 -0.49575,3.14754 -0.55755,0.83434 -1.52374,2.54887 -2.14709,3.81005 -0.62335,1.26118 -1.33731,2.68993 -1.58658,3.175 -0.24926,0.48507 -0.55501,1.44922 -0.67943,2.14257 -0.12443,0.69335 -0.70537,2.01616 -1.29099,2.93959 -0.58562,0.92342 -1.71576,2.97372 -2.51142,4.55622 -0.79567,1.58249 -1.85123,3.43468 -2.34571,4.11597 -1.22549,1.68849 -5.44513,5.73551 -7.92246,7.59836 -1.11919,0.84159 -2.47988,1.95016 -3.02375,2.46348 -0.91815,0.86659 -1.53448,1.28925 -4.62435,3.17131 -0.6371,0.38805 -1.79001,1.22149 -2.56203,1.85208 -0.77202,0.63059 -1.62629,1.14653 -1.89839,1.14653 -0.27209,0 -1.7255,0.66236 -3.22981,1.47192 -1.50431,0.80955 -3.32245,1.76191 -4.04031,2.11634 -0.71787,0.35443 -1.4671,0.92238 -1.66497,1.26211 -0.19787,0.33973 -0.36459,0.50482 -0.37049,0.36688 -0.014,-0.3267 -4.84873,1.99043 -5.63186,2.69915 -0.73846,0.6683 -4.50615,2.02469 -5.54445,1.99603 -0.41725,-0.0115 -0.84883,0.2141 -0.95907,0.50137 -0.11023,0.28727 -0.52947,0.52231 -0.93164,0.52231 -1.05734,0 -4.2142,1.51041 -4.22265,2.02034 -0.004,0.23806 0.42939,0.70393 0.96297,1.03527 0.53358,0.33133 1.3007,0.89327 1.70471,1.24875 1.95945,1.72406 8.05239,3.13465 17.08071,3.95442 3.00743,0.27307 7.13493,0.51985 9.17222,0.5484 4.61286,0.0647 12.57653,-0.67108 13.72751,-1.26821 0.4742,-0.24602 0.96181,-0.38573 1.08359,-0.31047 0.12177,0.0753 0.72623,-0.63429 1.34324,-1.57678 1.08594,-1.65878 1.15548,-1.70093 2.1731,-1.31682 0.92438,0.34892 1.159,0.2956 1.94386,-0.44173 0.49092,-0.4612 0.98387,-0.74726 1.09544,-0.63569 0.11156,0.11156 -0.80062,1.01988 -2.02709,2.01848 -1.22646,0.9986 -2.65356,2.21793 -3.17133,2.70962 -1.01177,0.96081 -3.98848,4.9261 -4.01132,5.3435 -0.008,0.13908 -0.64261,0.90702 -1.41111,1.70654 -0.7685,0.79952 -2.40262,2.58508 -3.63137,3.96791 -1.9413,2.18473 -2.68104,2.72668 -5.64445,4.13528 -1.87569,0.89157 -3.85978,1.84445 -4.40908,2.1175 -0.5493,0.27306 -1.29781,0.49647 -1.66336,0.49647 -0.60214,0 -1.77484,0.32527 -5.21185,1.44562 -1.26912,0.41368 -2.66438,0.52642 -11.01232,0.88982 -3.90922,0.17018 -5.8502,0.11664 -6.76937,-0.18671 -1.09912,-0.36275 -1.46048,-0.3337 -2.4568,0.1975 -1.79466,0.95685 -4.9407,0.8138 -7.46788,-0.33956 -1.13653,-0.51869 -2.20809,-0.85552 -2.38125,-0.7485 -0.17315,0.10702 -0.31483,0.0265 -0.31483,-0.17902 0,-0.20548 -0.1538,-0.3736 -0.34178,-0.3736 -0.18797,0 -1.44608,-0.71437 -2.7958,-1.5875 -3.38283,-2.18834 -3.64297,-2.14049 -3.35608,0.61736 0.34731,3.3387 1.028,6.29829 1.89245,8.22824 0.42809,0.95575 0.83559,2.01533 0.90554,2.3546 0.07,0.33928 0.37447,0.96991 0.67671,1.40141 0.30223,0.4315 0.54952,1.06673 0.54952,1.41161 0,0.34488 0.3175,0.94456 0.70555,1.33262 0.38806,0.38805 0.62889,0.70555 0.5352,0.70555 -0.0937,0 0.17531,0.59531 0.5978,1.32292 1.54685,2.66395 2.37625,4.41888 2.21315,4.68278 -0.0919,0.1487 0.0585,0.35695 0.33426,0.46276 0.27575,0.10581 0.80548,0.87651 1.17718,1.71266 0.86727,1.95092 3.57684,5.11579 5.4662,6.3847 0.8101,0.54407 1.55709,1.11775 1.65998,1.27485 0.10288,0.1571 1.39196,1.01416 2.86462,1.90457 3.30778,2 5.49288,2.61638 7.32708,2.06684 1.52754,-0.45766 7.38648,-0.21383 8.80704,0.36652 0.51914,0.21208 1.37527,0.35099 1.90251,0.30868 0.70834,-0.0568 1.24108,0.24476 2.0404,1.15513 0.98761,1.12482 1.18031,1.20379 2.21404,0.90733 1.57447,-0.45156 2.45774,-0.4066 2.28346,0.11623 -0.0808,0.24254 -0.61001,0.44098 -1.17593,0.44098 -0.56591,0 -1.22747,0.1872 -1.47014,0.416 -0.58661,0.55312 -3.95448,1.51557 -6.21265,1.77543 -0.99704,0.11473 -2.1914,0.50204 -2.65413,0.86067 -0.46273,0.35864 -1.33691,0.65206 -1.94261,0.65206 -0.6057,0 -1.63659,0.15353 -2.29085,0.34117 -0.65426,0.18764 -1.84384,0.37192 -2.64351,0.40952 -0.79966,0.0376 -1.7263,0.30062 -2.0592,0.58451 -0.91435,0.77974 -3.36022,0.67392 -5.92112,-0.25617 -6.21748,-2.25811 -7.38755,-2.77559 -9.41932,-4.16583 -1.20514,-0.82462 -2.36643,-1.49931 -2.58065,-1.49931 -0.21422,0 -1.24335,-0.80754 -2.28696,-1.79455 -1.45914,-1.37999 -2.23046,-1.83921 -3.33893,-1.98789 -1.19203,-0.15988 -1.4063,-0.30414 -1.23824,-0.83365 0.21451,-0.67585 -0.70038,-2.79224 -1.20704,-2.79224 -0.16361,0 -1.23109,-0.98416 -2.37219,-2.18702 -1.1411,-1.20286 -2.64941,-2.75068 -3.35181,-3.43959 -0.70239,-0.6889 -1.79607,-2.24475 -2.4304,-3.45742 -0.63432,-1.21267 -1.27051,-2.20486 -1.41375,-2.20486 -0.76354,0 -1.03239,1.27752 -1.08099,5.1367 -0.0652,5.17761 0.29137,8.08944 1.35821,11.09108 0.10345,0.29104 0.23708,0.68791 0.29697,0.88194 1.10336,3.57454 3.4122,8.59249 4.86958,10.58334 0.42611,0.58208 1.20992,1.81357 1.74181,2.73664 0.9763,1.69433 2.2708,2.81575 3.34713,2.89962 0.63444,0.0494 1.60899,0.61141 4.69876,2.70951 1.098,0.74559 2.09645,1.35561 2.21878,1.35561 0.12234,0 0.97167,0.51594 1.8874,1.14653 1.25573,0.86472 1.6373,1.33533 1.55241,1.91466 -0.22678,1.54745 -1.46671,1.87141 -7.30216,1.90791 -1.17705,0.007 -9.50408,-3.3146 -12.05313,-4.80845 -2.00104,-1.17269 -5.75931,-4.55027 -6.43401,-5.78228 -0.27252,-0.49762 -0.78065,-1.10673 -1.12919,-1.35358 -0.34854,-0.24686 -0.85753,-0.67265 -1.13108,-0.9462 -0.49598,-0.49598 -6.61177,-0.68264 -15.23592,-0.46503 -2.8622,0.0722 -3.38354,-0.0198 -5.29167,-0.93441 -2.71847,-1.30297 -2.78393,-1.32094 -5.29167,-1.45326 -1.16416,-0.0614 -2.67229,-0.27003 -3.35139,-0.46357 -0.67909,-0.19355 -2.98097,-0.81152 -5.11528,-1.37327 -2.1343,-0.56175 -4.94211,-1.5293 -6.23957,-2.15012 -1.29746,-0.62081 -2.48808,-1.08696 -2.64583,-1.03588 -0.42083,0.13626 -3.95479,-1.39016 -8.44159,-3.64617 -3.80612,-1.91375 -5.68808,-3.19695 -9.90059,-6.75063 -1.0925,-0.92163 -2.1601,-1.6764 -2.37244,-1.67728 -1.46699,-0.006 -7.82184,-7.5827 -9.03401,-10.77094 -0.91371,-2.40322 -4.26,-7.85065 -4.93023,-8.02592 -0.39557,-0.10344 -0.70935,-0.48099 -0.70935,-0.85352 0,-0.36742 -0.1905,-0.85853 -0.42333,-1.09136 -0.82136,-0.82136 -1.90008,-0.41944 -3.64687,1.35879 -2.04046,2.07716 -4.03539,3.2722 -10.81466,6.47839 -1.88078,0.88949 -3.56273,1.61726 -3.73769,1.61726 -0.17495,0 -0.61277,0.32561 -0.97292,0.72358 -0.63995,0.70713 -0.63518,0.75991 0.2099,2.32264 0.90926,1.68142 6.17224,6.8919 7.83604,7.75787 0.53574,0.27885 1.16924,0.8195 1.40778,1.20145 0.23853,0.38195 0.73771,0.69446 1.10928,0.69446 0.88856,0 3.03525,1.65189 3.03525,2.33564 0,0.74328 -1.76728,3.21059 -3.49523,4.87971 -0.79401,0.76698 -1.44366,1.61719 -1.44366,1.88935 0,0.27216 -0.40567,0.97695 -0.90149,1.56619 -1.80833,2.14909 -2.81201,4.86508 -3.16162,8.5555 -0.0368,0.38806 -0.25667,1.38658 -0.4887,2.21894 -0.52575,1.88609 -1.08574,6.71098 -1.23694,10.65745 -0.0632,1.64924 -0.22655,3.39549 -0.36305,3.88056 -0.13649,0.48506 -0.46441,2.46944 -0.72872,4.40972 -0.26431,1.94028 -0.67272,4.79778 -0.90759,6.35 -0.23486,1.55222 -0.44841,4.01284 -0.47454,5.46805 -0.0261,1.45521 -0.18523,2.86653 -0.35354,3.13627 -0.16832,0.26973 -0.42613,2.37198 -0.57292,4.67166 -0.2205,3.45436 -0.16001,4.59675 0.34792,6.57142 0.33815,1.3146 0.77798,2.70485 0.9774,3.08945 0.19942,0.38459 0.46547,1.27017 0.59122,1.96794 0.12575,0.69778 0.54352,1.92042 0.92838,2.71699 0.38486,0.79656 0.69975,1.8738 0.69975,2.39384 0,0.52005 0.30736,1.44287 0.68303,2.05072 0.69254,1.12055 2.81175,2.91374 3.27302,2.7695 0.30387,-0.095 -0.0499,0.97287 -0.52624,1.58846 -0.34975,0.45202 -1.43048,0.5381 -2.37148,0.1889 z m -3.23866,-6.18251 c -0.16729,-1.17255 -1.34745,-1.27561 -1.34745,-0.11767 0,0.6828 0.18096,0.90781 0.73009,0.90781 0.55451,0 0.70298,-0.19002 0.61736,-0.79014 z m -17.24725,-3.88416 c 0.0378,-0.94235 -0.57474,-0.73502 -0.8297,0.2808 -0.28526,1.1366 0.16075,1.98147 0.53778,1.0187 0.14692,-0.37518 0.27828,-0.95996 0.29192,-1.2995 z m 8.7056,-5.7615 c -0.11778,-0.30691 -0.21414,-0.62441 -0.21414,-0.70555 0,-0.0811 -0.14388,-0.14754 -0.31975,-0.14754 -0.17586,0 -0.23672,0.3175 -0.13524,0.70556 0.10148,0.38805 0.34173,0.70555 0.53388,0.70555 0.19216,0 0.25302,-0.25111 0.13525,-0.55802 z m -7.62247,-8.9878 c 0,-0.3995 -0.15875,-0.62826 -0.35278,-0.50834 -0.19403,0.11991 -0.35278,0.44678 -0.35278,0.72637 0,0.27959 0.15875,0.50835 0.35278,0.50835 0.19403,0 0.35278,-0.32687 0.35278,-0.72638 z m -7.05898,-10.37934 c 0.006,-0.6149 -2.03325,1.7281 -2.29702,2.63905 -0.19635,0.67813 0.0392,0.51507 1.01912,-0.70555 0.70096,-0.87313 1.27602,-1.7432 1.2779,-1.9335 z m 21.49807,-1.85886 c 0.0136,-0.63059 -0.13395,-1.14653 -0.32798,-1.14653 -0.19403,0 -0.34162,0.83344 -0.32798,1.85208 0.0182,1.36021 0.10531,1.6647 0.32798,1.14653 0.16676,-0.38806 0.31435,-1.22149 0.32798,-1.85208 z m -19.19963,0.26242 c 0.64565,-0.71344 0.54125,-1.32452 -0.15298,-0.89546 -0.53489,0.33057 -1.16835,1.60317 -0.79801,1.60317 0.17078,0 0.59873,-0.31847 0.95099,-0.70771 z M 79.2868,259.24258 c 0,-0.44098 -1.386101,-2.0577 -1.394557,-1.62658 -0.01776,0.90524 0.465834,1.94028 0.906536,1.94028 0.268412,0 0.488021,-0.14117 0.488021,-0.3137 z m -2.116666,-4.46962 c 0,-0.3025 -0.16134,-0.45028 -0.358533,-0.32841 -0.197192,0.12188 -0.267198,0.36937 -0.155569,0.54999 0.302416,0.48932 0.514102,0.39808 0.514102,-0.22158 z m -0.178577,-5.78707 c 0.261704,-1.54901 -0.05862,-2.52655 -0.565674,-1.72631 -0.405331,0.6397 -0.399218,3.12447 0.0077,3.12447 0.176973,0 0.428067,-0.62917 0.557987,-1.39816 z m 26.265583,-7.68586 c 0.45141,-1.62544 0.47664,-2.91042 0.0571,-2.91042 -0.1728,0 -0.3996,0.51594 -0.504,1.14653 -0.1044,0.63059 -0.29902,1.58309 -0.4325,2.11666 -0.37815,1.51168 0.45431,1.17771 0.87935,-0.35277 z m -7.742561,-3.43959 c 0,-0.29104 -0.15875,-0.52916 -0.352778,-0.52916 -0.194028,0 -0.352778,0.23812 -0.352778,0.52916 0,0.29104 0.15875,0.52917 0.352778,0.52917 0.194028,0 0.352778,-0.23813 0.352778,-0.52917 z m 133.350011,-8.7817 c 0,-0.27028 -0.23837,-0.58289 -0.5297,-0.69468 -0.29132,-0.1118 -0.79927,-0.80347 -1.12876,-1.53705 -0.3295,-0.73359 -1.35293,-2.12754 -2.2743,-3.09768 -0.92137,-0.97014 -2.14985,-2.47417 -2.72994,-3.34228 -0.7294,-1.09156 -1.30359,-1.58121 -1.86158,-1.5875 -0.56308,-0.006 -1.05734,-0.43546 -1.63585,-1.42022 -0.45593,-0.77611 -1.33763,-2.28423 -1.95932,-3.35139 -0.8729,-1.49834 -1.34897,-1.9657 -2.09018,-2.0519 -1.10548,-0.12857 -1.16133,0.13738 -0.5595,2.6642 0.68724,2.88539 1.06939,3.62905 3.37952,6.57648 3.67167,4.68457 4.39614,5.33627 8.03822,7.23085 2.29073,1.19163 3.35139,1.38505 3.35139,0.61117 z M 76.620498,228.89773 c 0.108658,-0.17581 0.514902,-0.23667 0.902765,-0.13525 0.749679,0.19605 0.887274,-0.12264 0.391067,-0.90576 -0.496363,-0.78337 -2.482067,0.0863 -2.502683,1.09608 -0.0076,0.37428 0.971056,0.32969 1.208851,-0.0551 z m 23.322801,-0.41664 c 0.363541,-0.58823 -0.454099,-1.26277 -0.940759,-0.77611 -0.407079,0.40708 -0.152302,1.15963 0.392595,1.15963 0.171126,0 0.417799,-0.17258 0.548164,-0.38352 z m -18.687457,-0.63441 0.845606,-0.66516 -0.966352,-0.18965 c -1.118677,-0.21955 -1.680885,0.17528 -1.377044,0.96708 0.272803,0.71091 0.470076,0.69613 1.49779,-0.11227 z m 46.361518,-2.68583 c 0,-0.36209 -2.75537,-2.99902 -3.13372,-2.99902 -0.67788,0 -0.44111,0.41727 1.03191,1.81851 1.276,1.21384 2.10181,1.67766 2.10181,1.18051 z m 19.45189,-2.96865 c 0.45806,-0.37136 0.72754,-0.78092 0.59886,-0.91013 -0.27781,-0.27896 -2.05908,0.82239 -2.05908,1.27311 0,0.50276 0.56584,0.36211 1.46022,-0.36298 z m 108.60645,-2.03817 c 0,-0.43672 -1.33907,-1.1672 -2.13964,-1.1672 -0.62958,0 -0.32595,0.77262 0.37575,0.95612 0.38805,0.10148 0.70555,0.29828 0.70555,0.43734 0,0.13906 0.23813,0.25284 0.52917,0.25284 0.29104,0 0.52917,-0.2156 0.52917,-0.4791 z M 141.88546,217.8403 c -0.28403,-0.92646 -0.83196,-1.67569 -1.22549,-1.67569 -0.33824,0 -0.018,1.4213 0.45709,2.02847 0.56199,0.71828 1.03077,0.50306 0.7684,-0.35278 z m -49.631486,-2.40033 c 0.632015,-0.95964 0.984087,-1.74481 0.782382,-1.74481 -0.201704,0 -0.503269,-0.35718 -0.670143,-0.79375 -0.292593,-0.76545 -0.312739,-0.75602 -0.56518,0.26459 -0.143975,0.58208 -0.457848,1.29646 -0.697496,1.5875 -0.603487,0.73291 -0.881158,2.47423 -0.390732,2.45036 0.215628,-0.0105 0.909154,-0.80425 1.541169,-1.76389 z m 21.252276,-2.45909 c 0,-0.19883 -0.38146,-0.50654 -0.84768,-0.6838 -0.46622,-0.17726 -0.95184,-0.49083 -1.07915,-0.69682 -0.34421,-0.55694 -1.24817,-0.45311 -1.24817,0.14336 0,0.5742 1.59533,1.56263 2.55764,1.58464 0.33954,0.008 0.61736,-0.14855 0.61736,-0.34738 z m 53.62222,-1.02878 c 0,-0.41623 -0.68804,-0.86149 -0.94074,-0.60879 -0.2527,0.2527 0.19255,0.94074 0.60878,0.94074 0.18258,0 0.33196,-0.14938 0.33196,-0.33195 z m -87.402549,-2.31388 c 0.106453,-0.55687 0.0075,-0.88194 -0.268456,-0.88194 -0.61171,0 -1.336297,0.95209 -1.06216,1.39565 0.414107,0.67004 1.159326,0.38233 1.330616,-0.51371 z m 9.777371,-1.78084 c -0.233808,-0.28172 -0.564417,-0.51222 -0.734687,-0.51222 -0.517656,0 -0.346674,0.78707 0.307779,1.41677 0.498917,0.48005 0.639871,0.4994 0.734687,0.10085 0.06453,-0.27125 -0.07397,-0.72368 -0.307779,-1.0054 z m -24.392327,-7.79327 c 0.06142,-0.0311 -0.04028,-0.15054 -0.225995,-0.26531 -0.185713,-0.11478 -0.617725,0.22651 -0.960026,0.75842 l -0.622365,0.96711 0.84836,-0.7018 c 0.466598,-0.38598 0.89861,-0.72727 0.960026,-0.75842 z m 84.643195,-1.87126 c 1.15402,-0.96272 1.02314,-1.56776 -0.20208,-0.93417 -0.54771,0.28323 -1.20214,0.76355 -1.4543,1.06739 -0.38854,0.46815 -0.35771,0.55064 0.20208,0.54069 0.3633,-0.006 1.01774,-0.30971 1.4543,-0.67391 z M 46.291137,197.13231 c 0.1139,-0.18429 -0.10442,-0.50179 -0.485154,-0.70556 -0.913764,-0.48903 -1.091406,-0.46798 -1.091406,0.12929 0,0.73595 1.205534,1.1766 1.57656,0.57627 z m 1.941001,-2.12059 c 0.604867,-0.38253 0.459877,-0.60424 -0.506161,-0.77399 -0.440104,-0.0773 -0.739032,0.10343 -0.819617,0.49563 -0.137721,0.67026 0.495772,0.80327 1.325778,0.27836 z m -35.258831,-2.3298 c 0.580077,-1.52572 0.382082,-1.79284 -0.506071,-0.68276 -0.819666,1.02447 -0.883044,1.58767 -0.178665,1.58767 0.187379,0 0.49551,-0.40721 0.684736,-0.90491 z m 43.559326,-3.6812 c 0.119915,-0.19403 -0.0201,-0.35278 -0.311138,-0.35278 -0.291042,0 -0.62728,0.15875 -0.747196,0.35278 -0.119915,0.19403 0.0201,0.35278 0.311138,0.35278 0.291042,0 0.62728,-0.15875 0.747196,-0.35278 z M 304.2373,183.87023 c 0.11489,-0.29941 0.11375,-0.63953 -0.003,-0.75583 -0.25126,-0.25126 -1.28683,0.54594 -1.28683,0.99063 0,0.53237 1.06974,0.33757 1.28938,-0.2348 z m -60.29146,-11.18548 c -0.0808,-0.24254 -0.27929,-0.44098 -0.44098,-0.44098 -0.16169,0 -0.36012,0.19844 -0.44097,0.44098 -0.0808,0.24253 0.11759,0.44097 0.44097,0.44097 0.32338,0 0.52182,-0.19844 0.44098,-0.44097 z m 69.94527,-0.0967 c 0.24543,-0.29573 0.35784,-0.6261 0.2498,-0.73414 -0.26997,-0.26997 -1.66799,0.51073 -1.66799,0.93146 0,0.52901 0.92184,0.40074 1.41819,-0.19732 z m -337.091628,-7.78151 c 0.468463,-0.30695 1.17833,-1.1116 1.577482,-1.78811 0.542924,-0.92019 0.925068,-1.20085 1.517087,-1.11421 1.013483,0.14833 2.059862,-1.16969 3.631503,-4.57424 1.245418,-2.69787 2.153128,-6.37734 1.80017,-7.29714 -0.114648,-0.29877 -0.427669,-0.54321 -0.695603,-0.54321 -0.887911,0 -3.418558,1.95685 -4.358708,3.37043 -0.509217,0.76564 -1.9754,2.50332 -3.258185,3.86151 -1.41847,1.50186 -2.739595,3.33995 -3.371729,4.69112 l -1.039394,2.22168 1.04304,0.85244 c 1.228588,1.00409 1.991806,1.08145 3.154337,0.31973 z m 191.867678,-3.85163 c -0.11169,-0.29105 -0.34483,-0.52917 -0.5181,-0.52917 -0.17327,0 -0.31503,0.23812 -0.31503,0.52917 0,0.29104 0.23314,0.52916 0.51809,0.52916 0.31559,0 0.43873,-0.20683 0.31504,-0.52916 z m 137.01939,-14.9562 c 1.55327,-1.96124 1.15576,-2.38536 -0.82189,-0.87693 -1.40905,1.07473 -1.65955,2.08825 -0.41879,1.69445 0.43582,-0.13832 0.99413,-0.50621 1.24068,-0.81752 z M 98.336801,142.96322 c 0,-0.29104 -0.15875,-0.52917 -0.352778,-0.52917 -0.194027,0 -0.352777,0.23813 -0.352777,0.52917 0,0.29104 0.15875,0.52917 0.352777,0.52917 0.194028,0 0.352778,-0.23813 0.352778,-0.52917 z m 213.440029,-2.34467 c 0.67389,-0.65828 1.70357,-1.59064 2.28818,-2.07193 0.96038,-0.79065 2.64125,-3.20743 2.64125,-3.79763 0,-0.13002 -1.74505,1.50624 -3.87789,3.63614 -2.13283,2.12989 -3.87908,4.00985 -3.88055,4.17769 -0.004,0.42504 1.36997,-0.51905 2.82901,-1.94427 z m -346.152611,-7.89522 c -0.108615,-0.10862 -0.305875,0.0872 -0.438354,0.43509 -0.191447,0.50278 -0.150926,0.5433 0.197483,0.19748 0.241095,-0.2393 0.349487,-0.52396 0.240871,-0.63257 z m 216.320921,-3.19507 c 0,-0.62297 -0.75945,-0.51448 -0.97749,0.13965 -0.0768,0.2304 0.11171,0.41892 0.41892,0.41892 0.30721,0 0.55857,-0.25135 0.55857,-0.55857 z M 5.9090193,127.28543 c 0,-0.18258 -0.15875,-0.43007 -0.3527778,-0.54999 -0.1940278,-0.11992 -0.3527778,0.0295 -0.3527778,0.33196 0,0.30249 0.15875,0.54999 0.3527778,0.54999 0.1940278,0 0.3527778,-0.14939 0.3527778,-0.33196 z M 312.47292,125.50072 c 0,-0.19403 -0.23812,-0.35278 -0.52916,-0.35278 -0.29105,0 -0.52917,0.15875 -0.52917,0.35278 0,0.19403 0.23812,0.35278 0.52917,0.35278 0.29104,0 0.52916,-0.15875 0.52916,-0.35278 z m -59.97222,-1.36997 c 0,-0.38006 -1.06898,-0.68763 -1.6779,-0.48276 -0.24374,0.082 -0.35343,0.29429 -0.24376,0.47175 0.25576,0.41382 1.92166,0.42337 1.92166,0.011 z m -57.15001,-1.76972 c 0,-0.13309 -0.87757,-0.54028 -1.95017,-0.90486 -1.44362,-0.49071 -2.05317,-0.55988 -2.34672,-0.26634 -0.41015,0.41016 -0.041,0.62676 2.35662,1.38276 1.06285,0.33513 1.94027,0.23946 1.94027,-0.21156 z m 130.79808,-5.59156 c 0.33641,-0.72761 0.73072,-1.37584 0.87624,-1.44051 0.47394,-0.21064 0.27841,-1.11713 -0.24097,-1.11713 -0.67206,0 -3.14545,3.043 -2.85516,3.5127 0.51146,0.82755 1.61526,0.35266 2.21989,-0.95506 z m -23.42621,-5.60253 c 0.85136,-1.78532 0.72797,-1.83072 -0.83297,-0.3065 -1.62317,1.58498 -1.90237,2.50176 -0.57815,1.8984 0.45814,-0.20873 1.09314,-0.92509 1.41112,-1.5919 z m -313.835069,0.84003 c -0.08085,-0.24254 -0.279283,-0.44097 -0.440973,-0.44097 -0.161689,0 -0.360127,0.19843 -0.440972,0.44097 -0.08085,0.24253 0.117593,0.44097 0.440972,0.44097 0.32338,0 0.521818,-0.19844 0.440973,-0.44097 z m 320.606649,-9.35819 c -0.29442,-0.29442 -0.90155,0.32757 -0.89055,0.91234 0.01,0.52375 0.074,0.51359 0.52552,-0.0833 0.28286,-0.37389 0.44713,-0.74698 0.36503,-0.82908 z M 7.8952592,91.193079 c -0.1169943,-0.436563 -0.2148845,-1.150938 -0.2175339,-1.5875 -0.00348,-0.572617 -0.2136646,-0.79375 -0.7544699,-0.79375 -0.6529682,0 -0.720946,0.143534 -0.5270717,1.112905 0.2415707,1.207854 0.8054042,2.062095 1.3610653,2.062095 0.1928998,0 0.2550044,-0.357188 0.1380102,-0.79375 z M 317.53939,90.046551 c 0.11168,-0.291041 0.0493,-0.529166 -0.13865,-0.529166 -0.18794,0 -0.34171,0.238125 -0.34171,0.529166 0,0.291042 0.0624,0.529167 0.13865,0.529167 0.0763,0 0.23002,-0.238125 0.34171,-0.529167 z m 2.34187,-17.668287 c 0,-0.62298 -0.75945,-0.514488 -0.97749,0.139641 -0.0768,0.230408 0.11171,0.418924 0.41892,0.418924 0.30721,0 0.55857,-0.251354 0.55857,-0.558565 z M 1.8784361,68.543556 C 1.7493394,67.855411 1.4921583,67.292384 1.3069225,67.292384 c -0.43606308,0 -0.42462777,0.348306 0.056774,1.729255 0.5035499,1.444483 0.8202359,1.15035 0.5147396,-0.478083 z M 207.80742,67.264518 c 0.14403,-0.550783 0.0592,-0.682557 -0.34048,-0.529167 -0.29276,0.112341 -0.67805,0.204255 -0.85621,0.204255 -0.17816,0 -0.32392,0.238125 -0.32392,0.529167 0,0.810002 1.30108,0.635236 1.52061,-0.204255 z m 18.86698,-6.539072 c 0.0574,-0.385665 -0.29322,-1.062935 -0.79375,-1.533168 -0.99733,-0.936938 -1.06084,-0.795719 -0.51926,1.154604 0.38695,1.393447 1.12999,1.607681 1.31301,0.378564 z M 81.197874,51.735076 c 0.535534,-0.487517 -0.652017,-0.729322 -1.673849,-0.340822 -1.335684,0.507826 -1.191216,1.110243 0.203748,0.849605 0.63059,-0.117821 1.292136,-0.346773 1.470101,-0.508783 z m 4.264495,-7.375411 c 0.752434,-0.83143 0.52242,-1.255674 -0.408576,-0.753588 -0.358443,0.193308 -0.929527,0.43745 -1.269076,0.542538 -0.900998,0.278853 -0.754799,0.918769 0.209907,0.918769 0.454998,0 1.115483,-0.318474 1.467745,-0.707719 z M 218.12206,43.405189 c -0.5393,-0.463888 -1.0561,-0.76788 -1.14845,-0.675538 -0.33993,0.339937 0.30112,1.591083 0.88325,1.723825 1.12954,0.257571 1.24639,-0.204304 0.2652,-1.048287 z m 19.73338,-5.761573 c 0.1645,-0.666973 0.0197,-1.074571 -0.56402,-1.5875 -0.72918,-0.640749 -0.76846,-0.64389 -0.54915,-0.04391 0.12991,0.355417 0.2362,1.220605 0.2362,1.922639 0,1.392636 0.50283,1.225651 0.87697,-0.291232 z M -98.898905,29.104189 c -0.827844,-1.60065 -2.083745,-2.603448 -2.083745,-1.663805 0,0.360979 1.977202,2.457555 2.317629,2.457555 0.09715,0 -0.0081,-0.357187 -0.233884,-0.79375 z M 2.8821474,28.441101 c -0.2783082,-0.450312 -0.8536839,-0.01969 -0.8536839,0.638909 0,0.448449 0.098186,0.470056 0.5252825,0.115597 0.2889053,-0.23977 0.436686,-0.579298 0.3284014,-0.754506 z M -102.04099,25.382383 c 0,-0.366545 -0.76436,-1.128888 -1.13187,-1.128888 -0.15687,0 -0.0869,0.3175 0.15541,0.705555 0.44513,0.712761 0.97646,0.943115 0.97646,0.423333 z m 384.69729,-2.72122 c -0.004,-0.19137 -1.11505,-1.108853 -2.46945,-2.03885 -1.3544,-0.929997 -3.04336,-2.257747 -3.75324,-2.950554 -0.70989,-0.692807 -1.4957,-1.191316 -1.74626,-1.107796 -0.65567,0.218556 4.61481,5.46846 5.78466,5.762072 0.52606,0.132032 0.95647,0.393239 0.95647,0.580459 0,0.187221 0.27781,0.2869 0.61736,0.221509 0.33955,-0.06539 0.61425,-0.275469 0.61046,-0.46684 z M 119.15069,15.963217 c 0,-0.291042 -0.15875,-0.529167 -0.35278,-0.529167 -0.19402,0 -0.35277,0.238125 -0.35277,0.529167 0,0.291041 0.15875,0.529166 0.35277,0.529166 0.19403,0 0.35278,-0.238125 0.35278,-0.529166 z m 3.43433,-8.7812188 c 0.41398,-0.8521006 0.85233,-2.1617881 0.97411,-2.9104167 0.20768,-1.276715 0.18724,-1.3186675 -0.32962,-0.6763555 -0.30307,0.3766331 -0.55104,0.8988949 -0.55104,1.1605818 0,0.2616869 -0.3175,1.0981458 -0.70556,1.8587975 -0.75196,1.4739781 -0.88042,2.1166667 -0.42307,2.1166667 0.15536,0 0.62119,-0.6971732 1.03518,-1.5492738 z M 258.66806,3.6391644 c -0.93464,-1.2253813 -1.52708,-1.702175 -1.01506,-0.8169203 0.71839,1.2420649 1.64743,2.4018832 1.80098,2.2483427 0.0954,-0.095441 -0.25822,-0.7395816 -0.78592,-1.4314224 z m 67.27134,-0.00886 c 0.91776,-0.3814485 1.10063,-1.2490371 0.26327,-1.2490371 -0.95851,0 -2.86408,1.0117332 -2.62726,1.3949043 0.20306,0.328558 1.40026,0.254686 2.36399,-0.1458672 z M 41.70358,1.8214969 C 42.032441,1.3195928 42.23933,0.84676567 42.163334,0.77076986 41.960262,0.56769854 40.883083,0.49837569 38.911382,0.56148755 c -1.876873,0.0600765 -1.855901,0.24629073 0.15875,1.40956515 1.635621,0.94442 1.927509,0.9278434 2.633448,-0.1495558 z M 23.900687,-1.4581388 c 0,-0.3906532 -1.075479,-0.6854051 -1.715612,-0.4701908 -0.406002,0.1364985 -0.406002,0.2091225 0,0.4663479 0.629252,0.3986678 1.715612,0.4011012 1.715612,0.00384 z m -4.586112,-1.2550473 c 0,-0.2795907 -0.15875,-0.6064597 -0.352777,-0.7263754 -0.194028,-0.1199158 -0.352778,-0.1422685 -0.352778,-0.049673 0,0.092596 -0.09636,0.4194647 -0.214132,0.7263754 -0.140516,0.3661776 -0.01923,0.5580195 0.352777,0.5580195 0.311801,0 0.56691,-0.228756 0.56691,-0.5083465 z M 15.569866,-5.1818933 C 15.361402,-5.725141 14.43862,-5.9485271 11.906242,-6.06878 11.033117,-6.1102413 9.9379336,-6.1706287 9.4725015,-6.202974 9.0070694,-6.235319 8.5572777,-6.0633463 8.4729644,-5.8208116 c -0.1120213,0.3222393 0.4957769,0.4522106 2.2573516,0.4827111 1.325856,0.022956 2.886898,0.1629239 3.468981,0.3110389 1.563434,0.3978263 1.581845,0.3957463 1.370569,-0.1548317 z m -9.8372356,-0.197946 c 0.1199157,-0.1940278 -0.1088403,-0.3527778 -0.5083468,-0.3527778 -0.3995065,0 -0.7263755,0.15875 -0.7263755,0.3527778 0,0.1940277 0.2287561,0.3527777 0.5083468,0.3527777 0.2795907,0 0.6064597,-0.15875 0.7263755,-0.3527777 z M 276.84237,-8.9076172 c 0,-0.1940278 -0.15876,-0.3527778 -0.35278,-0.3527778 -0.19403,0 -0.35278,0.15875 -0.35278,0.3527778 0,0.1940278 0.15875,0.3527778 0.35278,0.3527778 0.19402,0 0.35278,-0.15875 0.35278,-0.3527778 z M 32.558248,-27.62831 c 0.127894,-0.206937 0.170018,-0.438766 0.09361,-0.515175 -0.242311,-0.24231 -1.695614,0.254625 -1.695614,0.57979 0,0.441461 1.322193,0.388131 1.602005,-0.06461 z m 2.327749,-2.186639 c 1.944156,-1.728163 4.314973,-4.479423 4.070596,-4.7238 -0.119185,-0.119185 -1.550925,1.154062 -3.181645,2.829438 -2.890553,2.969708 -3.457235,4.177314 -0.888951,1.894362 z M 277.9007,-35.295761 c 0,-0.32728 -4.60905,-2.953902 -6.17361,-3.518245 -1.42195,-0.512899 -5.27474,-1.199179 -7.23195,-1.288193 -0.87312,-0.03971 -2.96305,-0.282466 -4.64429,-0.539459 -3.86165,-0.590291 -5.48956,-0.119253 -1.8821,0.54459 1.3582,0.249934 3.37289,0.464181 4.4771,0.476104 1.10421,0.01192 2.10577,0.18043 2.22568,0.374457 0.11992,0.194028 0.5238,0.352778 0.89752,0.352778 0.79639,0 6.66128,1.888836 8.45109,2.721744 1.05656,0.49168 2.67555,0.994349 3.61598,1.122701 0.14552,0.01986 0.26458,-0.09105 0.26458,-0.246477 z M 19.641423,-39.915908 c 0.664835,-0.128342 1.273797,-0.428366 1.353248,-0.666719 0.108582,-0.325745 -0.08245,-0.347098 -0.769241,-0.08598 -0.502534,0.191063 -1.508371,0.331232 -2.235193,0.311487 -1.802473,-0.04897 -5.025662,0.143576 -5.025662,0.300215 0,0.714887 3.338767,0.785394 6.676848,0.140999 z m 238.856497,-2.366953 c 0,-0.07626 -0.23813,-0.138646 -0.52917,-0.138646 -0.29104,0 -0.52916,0.153768 -0.52916,0.341706 0,0.187939 0.23812,0.250329 0.52916,0.138646 0.29104,-0.111683 0.52917,-0.265451 0.52917,-0.341706 z m 4.86068,-3.255421 c 0.087,-0.260987 -0.3168,-0.411002 -1.1063,-0.411002 -1.20522,0 -2.03831,0.513227 -1.25624,0.773916 0.77833,0.259445 2.22939,0.03655 2.36254,-0.362914 z m -325.888473,-0.264012 c 0,-0.622979 -0.759445,-0.514487 -0.977488,0.139641 -0.0768,0.230408 0.111713,0.418924 0.418923,0.418924 0.307211,0 0.558565,-0.251354 0.558565,-0.558565 z M 270.643,-45.78047 c 0.37389,-0.282866 0.60232,-0.591786 0.50762,-0.686489 -0.0947,-0.0947 -1.48772,-0.02215 -3.09559,0.161234 -1.60786,0.183381 -3.02692,0.319801 -3.15345,0.303154 -0.63604,-0.08368 -1.11199,0.09012 -1.11199,0.406064 0,0.58322 6.05415,0.420711 6.85341,-0.183963 z m -2.3114,-1.447634 c 1.17505,-0.235009 1.48167,-1.067242 0.52803,-1.433186 -0.31592,-0.121229 -1.3081,-0.04539 -2.20486,0.168522 -0.89675,0.213917 -2.1464,0.489451 -2.77699,0.612297 -0.63059,0.122847 -1.14653,0.369494 -1.14653,0.548105 0,0.367119 3.92108,0.440117 5.60035,0.104262 z M -32.370827,-67.468729 c 0.170351,-1.313262 0.135796,-1.826275 -0.106929,-1.5875 -0.197238,0.194027 -0.459768,1.305277 -0.5834,2.469444 -0.28388,2.673126 0.331094,1.887452 0.690329,-0.881944 z m 1.238178,-5.447236 c 0,-0.279591 -0.15875,-0.60646 -0.352778,-0.726376 -0.194028,-0.119915 -0.352778,0.108841 -0.352778,0.508347 0,0.399507 0.15875,0.726376 0.352778,0.726376 0.194028,0 0.352778,-0.228756 0.352778,-0.508347 z m 0.528165,-3.72183 c 0.288939,-0.910367 -0.14276,-1.680276 -0.56686,-1.010959 -0.405329,0.639692 -0.395978,1.713358 0.01492,1.713358 0.180953,0 0.429325,-0.31608 0.551938,-0.702399 z m 350.453654,-6.794129 c 0.2171,-0.57834 0.16155,-0.82559 -0.2047,-0.911075 -0.62763,-0.146494 -1.5271,0.57142 -1.5271,1.218854 0,0.808888 1.40646,0.55893 1.7318,-0.307779 z m -140.72625,-0.292234 c 0.73513,-0.220455 0.63716,-0.26953 -0.58851,-0.294805 -1.61535,-0.03331 -2.58649,0.231078 -2.58649,0.704157 0,0.299871 1.42091,0.116673 3.175,-0.409352 z m 21.22347,-3.870201 c 1.98869,-0.763234 3.76709,-1.920844 3.44529,-2.242643 -0.34571,-0.345716 -7.02987,2.043924 -7.02987,2.513237 0,0.66171 1.43824,0.55314 3.58458,-0.270594 z M 212.137,-90.11063 c 1.14802,-0.229295 2.80168,-0.834999 3.67481,-1.346008 0.87312,-0.511009 2.08553,-1.14798 2.69423,-1.415492 0.94487,-0.415248 1.04855,-0.579557 0.70889,-1.123437 -0.44112,-0.706347 -1.46713,-0.848141 -1.83462,-0.253541 -0.13036,0.210932 -0.55415,0.30058 -0.94176,0.199218 -0.49553,-0.129584 -0.75818,0.02007 -0.88476,0.504109 -0.099,0.378621 -0.35927,0.655098 -0.57836,0.614394 -0.42782,-0.07948 -4.88333,1.954195 -6.03309,2.75375 -0.66912,0.465312 -0.66121,0.483907 0.20575,0.483907 0.49588,0 1.84089,-0.187605 2.98891,-0.4169 z m 111.16982,-1.346989 c 0.1194,-0.45659 0.48119,-0.705555 1.0253,-0.705555 0.65012,0 0.8408,-0.190214 0.8408,-0.838749 0,-0.461312 0.23638,-1.034924 0.52529,-1.274694 0.2889,-0.23977 0.43102,-0.58846 0.31581,-0.774867 -0.1152,-0.186406 0.1091,-0.684356 0.49846,-1.106556 0.38936,-0.422199 1.53463,-2.355134 2.54504,-4.29541 1.0104,-1.94028 1.97847,-3.5807 2.15125,-3.64537 0.38876,-0.14552 0.41588,-1.3654 0.0356,-1.60043 -0.7989,-0.49375 -6.07144,7.907839 -6.07144,9.674604 0,0.304957 -0.47625,1.010745 -1.05833,1.568416 -0.58208,0.557671 -1.05833,1.371753 -1.05833,1.809071 0,0.437318 -0.15875,0.893236 -0.35278,1.013152 -0.47204,0.291732 -0.44993,0.881944 0.033,0.881944 0.21219,0 0.46883,-0.3175 0.57031,-0.705556 z m -99.87921,-3.594087 c 0.88154,-0.812582 1.93368,-1.942086 2.33808,-2.51001 l 0.73526,-1.032588 -0.84665,0.265225 c -0.46566,0.145874 -1.27942,0.62693 -1.80835,1.069012 -0.52893,0.442083 -1.44174,0.909224 -2.02847,1.038092 -0.58673,0.128868 -1.06678,0.370107 -1.06678,0.536087 0,0.497729 0.67341,2.111603 0.88109,2.111603 0.10615,0 0.91427,-0.66484 1.79582,-1.477421 z m 102.04996,-3.726052 c 0.21464,-0.533576 0.35915,-1.323532 0.32114,-1.755452 l -0.0691,-0.78531 -0.80144,0.75291 c -0.89973,0.845256 -1.32203,1.867913 -0.99191,2.402057 0.40704,0.658599 1.14812,0.363285 1.54132,-0.614205 z m -72.62409,-0.285403 c 0,-0.302492 -0.15875,-0.451873 -0.35278,-0.331958 -0.19403,0.119916 -0.35278,0.36741 -0.35278,0.549987 0,0.182577 0.15875,0.331958 0.35278,0.331958 0.19403,0 0.35278,-0.247494 0.35278,-0.549987 z m -26.62022,-0.884595 c 0.37968,-0.614344 -0.0528,-0.744444 -0.5366,-0.161444 -0.27825,0.335275 -0.30502,0.537692 -0.0711,0.537692 0.20633,0 0.47979,-0.169311 0.60769,-0.376248 z m 3.22162,-1.158844 c 0.54846,-0.45624 1.35439,-1.01745 1.79096,-1.24713 0.43656,-0.22968 0.79375,-0.58051 0.79375,-0.77963 0,-0.3883 3.77882,-4.13191 4.7895,-4.74487 0.33483,-0.20307 0.53974,-0.57636 0.45535,-0.82954 -0.10199,-0.30598 -0.85909,0.10845 -2.25817,1.23608 -1.15761,0.93301 -2.18412,1.78665 -2.28113,1.89698 -0.45779,0.52063 -3.13487,2.47661 -3.40215,2.48577 -0.45214,0.0155 -2.59507,2.04202 -2.59507,2.45413 0,0.661633 1.70078,0.36521 2.70696,-0.47179 z m 25.93088,-0.78394 c 0.15353,-0.57408 0.12478,-1.16223 -0.0661,-1.35316 -0.18575,-0.18574 -0.38005,-0.26892 -0.43179,-0.18484 -0.50149,0.8149 -1.3288,2.56811 -1.3288,2.81592 0,0.749846 1.58003,-0.35549 1.82673,-1.27792 z m 12.24928,-34.81083 c 0.52643,-1.39188 0.85967,-4.71921 0.43184,-4.31193 -0.53091,0.50541 -1.8404,4.41484 -1.60588,4.79429 0.33976,0.54975 0.86535,0.33381 1.17404,-0.48236 z M 122.79606,247.37564 c 0,-0.60985 0.64669,-0.51958 0.8599,0.12005 0.0768,0.2304 -0.0853,0.41892 -0.36013,0.41892 -0.27487,0 -0.49977,-0.24254 -0.49977,-0.53897 z M 233.4507,54.725577 c 0,-0.468768 0.0958,-0.492875 0.52916,-0.133193 0.29104,0.241543 0.52917,0.499106 0.52917,0.572362 0,0.07326 -0.23813,0.133193 -0.52917,0.133193 -0.29104,0 -0.52916,-0.257563 -0.52916,-0.572362 z M 253.55903,1.3021187 c 0,-0.2054787 0.15875,-0.2754848 0.35278,-0.155569 0.19403,0.1199157 0.35278,0.2880347 0.35278,0.3735976 0,0.085563 -0.15875,0.155569 -0.35278,0.155569 -0.19403,0 -0.35278,-0.1681189 -0.35278,-0.3735976 z m 83.43195,-15.8541807 c 0.11991,-0.194027 0.37678,-0.352778 0.57081,-0.352778 0.19402,0 0.25466,0.158751 0.13474,0.352778 -0.11991,0.194028 -0.37677,0.352778 -0.5708,0.352778 -0.19403,0 -0.25467,-0.15875 -0.13475,-0.352778 z m 86.88374,-26.017361 c -0.29596,-0.339549 -0.9677,-1.411111 -1.49276,-2.38125 -0.52505,-0.970139 -1.14094,-1.922639 -1.36864,-2.116667 -0.64673,-0.55109 -0.48635,-1.290994 0.65093,-3.002942 0.57845,-0.870743 1.36565,-2.178482 1.74932,-2.906086 1.08487,-2.057388 2.36247,-1.522559 2.79289,1.169165 0.13026,0.814605 0.64305,2.339752 1.13952,3.389215 0.49648,1.049463 0.81977,2.124198 0.71842,2.388298 -0.39662,1.033578 -2.79309,4.077628 -3.21017,4.077628 -0.24277,0 -0.68355,-0.277813 -0.97951,-0.617361 z m -90.77476,-3.246266 c 0.11093,-0.179488 -0.0795,-0.487481 -0.42309,-0.684428 -0.5767,-0.330528 -0.5584,-0.406856 0.23773,-0.991821 0.47439,-0.348554 3.01439,-1.759258 5.64445,-3.134897 5.24467,-2.743194 8.83887,-4.940178 8.83887,-5.402825 0,-0.163671 -0.25642,-0.992231 -0.56982,-1.841243 -0.56417,-1.528362 -0.78534,-6.951586 -0.31456,-7.713328 0.12126,-0.196196 0.58049,-0.35672 1.02052,-0.35672 0.9564,0 7.80027,-6.671731 7.80332,-7.60705 10e-4,-0.329871 0.33859,-0.823284 0.75004,-1.096475 0.67413,-0.447605 0.85703,-0.405037 1.85013,0.430601 0.60612,0.51002 1.10706,1.19101 1.11319,1.513311 0.006,0.322301 0.72051,1.016456 1.5875,1.542567 0.86699,0.52611 1.57635,1.115024 1.57635,1.308697 0,0.193673 -0.67469,0.945602 -1.4993,1.670954 -0.82462,0.725352 -3.00744,2.84833 -4.8507,4.717729 -1.84326,1.869399 -3.98639,3.855556 -4.7625,4.413683 -1.4805,1.064673 -2.263,1.891638 -2.28184,2.411487 -0.0221,0.609832 3.03642,-0.172164 5.72542,-1.463865 2.26745,-1.089204 2.71065,-1.436511 2.57879,-2.020806 -0.1825,-0.808644 1.24418,-2.645833 2.05463,-2.645833 0.61229,0 4.03853,-3.509482 4.76763,-4.883471 1.16376,-2.193076 3.30573,-4.64153 4.06053,-4.64153 0.993,0 1.61567,-0.637483 1.61567,-1.654103 0,-0.645546 0.17684,-0.792803 0.88195,-0.734446 0.48507,0.04015 0.88194,0.184504 0.88194,0.320796 0,0.136293 0.51594,0.351645 1.14653,0.478561 2.18979,0.440728 2.31813,0.519648 2.11407,1.299988 -0.1071,0.409521 -1.1475,1.673999 -2.31201,2.80995 -1.16451,1.135951 -2.009,2.065366 -1.87666,2.065366 0.4952,0 -1.00259,2.353507 -2.80252,4.403669 -1.02499,1.167496 -2.24772,2.586957 -2.71718,3.154359 l -0.85355,1.031639 -2.20089,-0.617539 c -2.11252,-0.592742 -2.23154,-0.591821 -2.96393,0.02293 -0.41966,0.352261 -0.81557,0.668257 -0.8798,0.702214 -0.36781,0.194462 0.86751,1.648553 2.23455,2.63029 0.87252,0.626594 1.58639,1.33403 1.58639,1.572081 0,0.59884 -2.35911,2.61638 -3.09908,2.650367 -2.47613,0.11373 -5.31861,-0.166777 -6.17438,-0.609312 -0.56143,-0.290325 -1.20488,-0.460279 -1.42991,-0.377676 -0.22502,0.0826 -0.88538,-0.142288 -1.46746,-0.499757 -1.81674,-1.115696 -1.95701,-1.12591 -2.93148,-0.213456 -0.52199,0.488777 -2.7747,1.992606 -5.00602,3.341842 -7.34276,4.440027 -9.07583,5.38081 -8.65352,4.697496 z m 23.63564,-8.113118 c 0.35508,-0.574531 -1.18892,-1.191361 -1.77162,-0.707764 -0.2765,0.229477 -0.41574,0.557993 -0.30941,0.730036 0.258,0.417453 1.81959,0.40074 2.08103,-0.02227 z m -7.4221,-5.622172 c 0.22884,-0.370281 -0.65136,-1.186593 -0.95359,-0.884367 -0.27241,0.272409 0.0876,1.197172 0.46605,1.197172 0.16182,0 0.38121,-0.140762 0.48754,-0.312805 z m 0.39199,-3.943999 c 0.12789,-0.206936 0.15998,-0.448798 0.0713,-0.53747 -0.24606,-0.246055 -1.32054,0.241078 -1.32054,0.598684 0,0.441603 0.96778,0.394181 1.24923,-0.06121 z m 6.43001,-2.445973 c 0.24234,-0.388056 0.34947,-0.705556 0.23805,-0.705556 -0.46165,0 -1.56729,0.755351 -1.56729,1.070745 0,0.602709 0.87489,0.362346 1.32924,-0.365189 z m 62.17076,12.931933 c -0.8472,-0.392238 -0.88464,-0.547282 -0.95041,-3.9361 -0.0377,-1.940278 -0.16804,-4.21306 -0.28973,-5.050627 -0.29544,-2.033384 0.35305,-2.959775 3.01121,-4.301609 1.72607,-0.871316 2.10949,-1.224244 2.10949,-1.941731 0,-0.968118 -0.37248,-1.090855 -1.38726,-0.457119 -0.5271,0.32918 -0.79248,0.31986 -1.22993,-0.0432 -1.06718,-0.885676 -0.88787,-1.228133 2.87547,-5.491829 0.68503,-0.776111 1.61065,-2.224466 2.05693,-3.218566 0.8646,-1.925917 2.28448,-3.307823 3.39871,-3.307823 0.37394,0 1.44086,0.248899 2.37093,0.553109 1.66585,0.544873 1.71149,0.539379 3.06489,-0.368996 1.64641,-1.105025 3.09331,-2.214956 4.18461,-3.210041 1.32319,-1.206524 2.73498,-2.265739 3.01992,-2.265739 0.68178,0 0.61963,1.167851 -0.10168,1.910738 -0.99654,1.02636 -4.55221,3.6145 -5.65769,4.118193 -0.80105,0.36498 -0.83307,0.519688 -0.76907,3.716095 l 0.0668,3.335261 -1.81646,0.859322 c -0.99905,0.472627 -2.18547,1.358435 -2.63648,1.968462 l -0.82002,1.109139 1.3328,2.660722 1.3328,2.660721 -0.80115,0.648729 c -0.44063,0.356801 -0.70096,0.648729 -0.57851,0.648729 0.30584,0 -1.07774,2.675072 -2.32636,4.497917 -1.27746,1.864943 -2.16823,1.939609 -3.15652,0.264583 -0.40068,-0.679097 -0.92328,-1.234722 -1.16133,-1.234722 -0.62633,0 -1.96693,1.527846 -1.96693,2.241652 0,0.749144 -1.19083,3.134545 -1.8263,3.658326 -0.33805,0.278637 -0.70995,0.27213 -1.3487,-0.0236 z m 6.14025,-11.256239 c 1.21375,-4.427478 2.22276,-6.937497 2.82794,-7.034778 0.41308,-0.0664 0.70014,-0.419108 0.73481,-0.902841 0.0313,-0.436628 0.5756,-1.439337 1.20958,-2.228243 2.0963,-2.608564 0.35704,-1.964778 -1.96962,0.729056 -1.94993,2.257649 -3.65129,6.451717 -3.65129,9.000897 0,0.900427 0.63221,1.225188 0.84858,0.435909 z m 4.0903,-14.256285 c 10e-6,-0.685142 -0.97926,-0.315071 -1.74616,0.659874 -1.12551,1.430863 -0.85246,1.823315 0.51143,0.735061 0.6791,-0.541848 1.23472,-1.169569 1.23473,-1.394935 z m -126.29444,18.048646 c 0.24154,-0.291041 0.58982,-0.529166 0.77395,-0.529166 0.18413,0 0.0967,0.238125 -0.19439,0.529166 -0.29104,0.291042 -0.63932,0.529167 -0.77395,0.529167 -0.13463,0 -0.0472,-0.238125 0.19439,-0.529167 z m 61.67457,-16.119071 c -0.76486,-1.088029 -0.93824,-1.159581 -2.56091,-1.05687 -0.95729,0.06059 -2.08176,0.02452 -2.49885,-0.08016 -0.90333,-0.226723 -1.00759,-1.175399 -0.15877,-1.444803 0.32975,-0.10466 1.49225,-1.496023 2.58332,-3.091917 1.09107,-1.595894 2.37412,-3.370207 2.85122,-3.942918 0.84191,-1.010631 0.8881,-1.022607 1.56864,-0.40672 0.57848,0.523516 1.11433,0.60267 3.06186,0.452284 3.56449,-0.275246 4.08347,0.13396 2.35878,1.859858 -1.3715,1.372453 -2.99032,3.701249 -4.4158,6.352451 -0.67356,1.25273 -1.39215,2.333523 -1.59687,2.401762 -0.20471,0.06824 -0.74139,-0.401097 -1.19262,-1.042969 z m 1.48882,-2.784754 c 0.45553,-0.851162 0.24848,-1.205162 -0.53012,-0.906384 -0.58829,0.225747 -0.76426,1.642153 -0.20402,1.642153 0.1872,0 0.51757,-0.331096 0.73414,-0.735769 z m -2.57386,-0.881177 c -0.33618,-0.336182 -1.01017,0.20835 -0.75964,0.613728 0.14892,0.240948 0.34624,0.234861 0.5996,-0.0185 0.2077,-0.2077 0.27972,-0.475554 0.16004,-0.595231 z m 9.61325,4.26278 c -0.48507,-0.277291 -1.15187,-0.509791 -1.48178,-0.516666 -0.32991,-0.0069 -0.75339,-0.286895 -0.94107,-0.622265 -0.26407,-0.471858 -0.006,-1.090193 1.14191,-2.734028 2.28742,-3.276202 5.16149,-8.157932 5.16149,-8.76702 0,-0.956549 -0.72869,-1.043216 -1.63247,-0.194158 l -0.87469,0.821727 -2.00961,-0.723605 c -1.31921,-0.475009 -2.01106,-0.92082 -2.01381,-1.297648 -0.002,-0.315723 -0.35949,-0.905055 -0.79375,-1.309626 -0.43426,-0.404572 -0.78956,-0.895913 -0.78956,-1.091869 0,-0.390088 2.69013,-1.712718 3.50882,-1.72515 0.61812,-0.0094 2.88136,-1.498866 4.71706,-3.10439 1.02633,-0.897639 1.61007,-1.151969 2.45375,-1.069074 0.92293,0.09068 1.10386,0.255445 1.08791,0.990716 -0.0105,0.485069 -0.21612,1.293806 -0.45689,1.797192 -0.30171,0.630791 -0.34458,1.386439 -0.13795,2.431324 0.28518,1.442062 0.38146,1.536807 1.97211,1.940689 1.83928,0.467012 3.05499,1.357164 2.93841,2.151521 -0.0414,0.282127 -0.72811,1.184442 -1.526,2.005144 -0.79789,0.820702 -2.06048,2.623475 -2.80575,4.006162 -1.87661,3.481627 -5.04746,7.494836 -5.93063,7.50615 -0.38806,0.005 -1.10243,-0.217836 -1.5875,-0.495126 z m 2.11638,-3.527247 c 0.6388,-1.193609 0.10395,-1.614433 -0.73564,-0.57881 -0.79163,0.976461 -0.85975,1.460223 -0.20563,1.460223 0.25825,0 0.68182,-0.396635 0.94127,-0.881413 z m 76.90584,-36.992855 c 0,-0.2639 0.54174,-1.05423 1.20386,-1.75628 1.77308,-1.88001 2.57509,-5.88252 1.31397,-6.55745 -0.36144,-0.19344 -0.85443,-0.82792 -1.09552,-1.40997 -0.87378,-2.1095 -5.30976,-6.72981 -6.46131,-6.72981 -0.94164,0 -1.88732,-1.37806 -1.54961,-2.25811 0.25807,-0.67253 2.46323,-1.62245 3.76639,-1.62245 0.53469,0 1.54208,0.23813 2.23864,0.52917 0.69656,0.29104 1.98595,0.52917 2.86531,0.52917 h 1.59883 v 3.85973 c 0,2.36113 0.14657,3.95032 0.3775,4.09305 0.55214,0.34124 0.99467,1.69204 0.68843,2.10138 -0.14515,0.19403 -0.35857,1.64361 -0.47426,3.2213 -0.22645,3.08812 -1.03688,5.29158 -2.06642,5.61835 -0.35305,0.11205 -0.64192,0.35179 -0.64192,0.53274 0,0.18095 -0.39687,0.329 -0.88194,0.329 -0.50846,0 -0.88195,-0.20319 -0.88195,-0.47982 z"
       id="path1" /></g></svg>
