<?xml version="1.0" encoding="UTF-8" standalone="no"?>
<!-- Created with Inkscape (http://www.inkscape.org/) -->

<svg
   width="221.95122mm"
   height="238.75552mm"
   viewBox="0 0 221.95122 238.75552"
   version="1.1"
   id="svg1"
   xml:space="preserve"
   inkscape:version="1.4.2 (ebf0e940, 2025-05-08)"
   sodipodi:docname="weird_ghosty.svg"
   xmlns:inkscape="http://www.inkscape.org/namespaces/inkscape"
   xmlns:sodipodi="http://sodipodi.sourceforge.net/DTD/sodipodi-0.dtd"
   xmlns="http://www.w3.org/2000/svg"
   xmlns:svg="http://www.w3.org/2000/svg"><sodipodi:namedview
     id="namedview1"
     pagecolor="#ffffff"
     bordercolor="#000000"
     borderopacity="0.25"
     inkscape:showpageshadow="2"
     inkscape:pageopacity="0.0"
     inkscape:pagecheckerboard="0"
     inkscape:deskcolor="#d1d1d1"
     inkscape:document-units="mm"
     inkscape:zoom="0.023162177"
     inkscape:cx="388.56451"
     inkscape:cy="798.71593"
     inkscape:window-width="968"
     inkscape:window-height="714"
     inkscape:window-x="0"
     inkscape:window-y="38"
     inkscape:window-maximized="0"
     inkscape:current-layer="layer1" /><defs
     id="defs1" /><g
     inkscape:label="Layer 1"
     inkscape:groupmode="layer"
     id="layer1"
     transform="translate(-3.0328215,63.077526)"><path
       style="fill:#000000"
       d="m 110.13518,175.41335 c -0.20486,-0.14255 -0.81187,-1.52918 -1.34892,-3.08141 -0.53704,-1.55222 -1.18885,-3.21985 -1.44846,-3.70584 -0.25961,-0.486 -0.56176,-2.07228 -0.67145,-3.52508 -0.10968,-1.45279 -0.36183,-2.69558 -0.56032,-2.76174 -0.44547,-0.14849 -0.48078,-1.72235 -0.0423,-1.88419 0.50089,-0.18486 0.81251,-8.50822 0.84969,-22.69537 0.0329,-12.56537 0.004,-13.17133 -0.78441,-16.22778 -0.45024,-1.74625 -1.25701,-4.14631 -1.79283,-5.33347 -0.8587,-1.90255 -0.99331,-2.69726 -1.13535,-6.70277 -0.1505,-4.24411 -0.2494,-4.76571 -1.49712,-7.8957 -1.39241,-3.492966 -3.104036,-6.184003 -4.160689,-6.54147 -0.339548,-0.11487 -0.617361,-0.356907 -0.617361,-0.537859 0,-0.51821 -1.05953,-0.383593 -1.268577,0.161177 -0.103456,0.2696 -0.455661,0.428905 -0.782679,0.354012 -0.702127,-0.160801 -1.603983,0.571349 -3.08834,2.507195 -1.652032,2.154521 -3.12648,4.766905 -3.68354,6.526385 -0.276435,0.87313 -0.705213,1.98438 -0.952841,2.46945 -0.247628,0.48507 -0.456175,1.19944 -0.463438,1.5875 -0.01206,0.64436 -0.413328,1.53876 -2.294949,5.11528 -1.256992,2.38924 -3.810584,5.84396 -5.923086,8.01326 -1.174267,1.20584 -2.176195,2.39646 -2.226507,2.64583 -0.21743,1.07769 -0.777447,2.5285 -0.805166,2.08591 -0.02499,-0.39911 -0.127278,-0.40371 -0.582168,-0.0262 -0.35028,0.2907 -0.476679,0.75747 -0.346056,1.27792 0.120039,0.47827 0.04731,0.81992 -0.17453,0.81992 -0.209176,0 -0.281916,-0.19843 -0.161644,-0.44097 0.120271,-0.24253 -0.0688,-0.0457 -0.420153,0.43734 -0.944705,1.29887 -14.291109,14.38607 -15.31858,15.02109 -0.267608,0.16539 -1.281015,0.42352 -2.252015,0.57363 -2.414375,0.37325 -2.958561,0.48218 -4.587677,0.91835 -1.635246,0.43781 -6.960143,0.3194 -9.525001,-0.21182 -0.970139,-0.20092 -2.716389,-0.46283 -3.880556,-0.58202 -1.164166,-0.11918 -2.672291,-0.30291 -3.351389,-0.40828 -0.679097,-0.10537 -1.472847,-0.19573 -1.763889,-0.2008 -0.943429,-0.0164 -5.43377,-1.39975 -6.702778,-2.06491 -0.679097,-0.35595 -1.869722,-0.83837 -2.645833,-1.07204 -2.335245,-0.7031 -5.231847,-2.30253 -6.253195,-3.45285 -0.528841,-0.59562 -1.976918,-1.88091 -3.217949,-2.8562 -2.27663,-1.78913 -3.927335,-3.60068 -5.6401286,-6.18968 -0.5134472,-0.77611 -1.2468707,-1.80799 -1.6298301,-2.29306 -0.3829594,-0.48507 -0.7679224,-1.27882 -0.8554734,-1.76389 -0.087551,-0.48507 -0.4303623,-1.51694 -0.7618029,-2.29305 -0.3314407,-0.77611 -0.9919702,-2.64531 -1.4678434,-4.15377 l -0.8652241,-2.74265 1.1264522,-3.25457 c 0.6195488,-1.79001 1.8239047,-4.64363 2.6763466,-6.34138 1.4974101,-2.98227 1.5910029,-3.0868 2.7638641,-3.0868 1.1119436,0 4.7812986,0.80333 5.3977686,1.18174 0.378309,0.23221 9.564099,1.07076 11.020071,1.006 2.638164,-0.11735 5.876052,-0.89126 7.055555,-1.68639 2.761479,-1.86157 5.528446,-5.168174 7.00794,-8.37469 2.225596,-4.823547 2.88146,-7.607684 2.896431,-12.295342 0.0071,-2.212822 -0.134246,-4.414176 -0.314032,-4.891899 -0.179785,-0.477723 -0.440454,-2.401122 -0.579265,-4.27422 -0.214747,-2.897765 -0.162821,-3.542324 0.348201,-4.322241 0.565414,-0.862932 0.565535,-1.262594 0.0021,-6.824923 -0.329188,-3.249573 -0.851849,-7.495814 -1.161468,-9.436092 -0.30962,-1.940278 -0.529789,-4.326481 -0.489265,-5.302674 0.04052,-0.976194 -0.152755,-2.41668 -0.429508,-3.201081 -0.720636,-2.042501 -0.548479,-14.522654 0.247673,-17.954579 0.31508,-1.358194 0.578401,-3.183819 0.585157,-4.056944 0.01077,-1.391178 0.229879,-2.880732 1.377075,-9.361511 0.138639,-0.783206 0.353787,-1.588591 0.478106,-1.789743 0.124319,-0.2011529 0.408891,-2.1797231 0.632382,-4.3968229 0.223491,-2.2170998 0.812527,-5.618590552305 1.308968,-7.5588684 0.496442,-1.9402778 0.948875,-4.4009028 1.005407,-5.4680556 0.149959,-2.8307941 0.92973,-6.2518071 1.814738,-7.9616271 1.114203,-2.15262 2.908291,-7.139524 2.908291,-8.083978 0,-0.300101 0.457974,-1.376672 1.017719,-2.392378 0.559746,-1.015707 1.120942,-2.293449 1.247103,-2.839427 0.126161,-0.545979 0.701388,-1.498479 1.278282,-2.116667 0.576894,-0.618188 1.933897,-2.552729 3.015561,-4.298979 1.746854,-2.820138 2.479817,-3.668774 5.24878,-6.077118 0.38222,-0.332441 1.224158,-0.874246 1.870975,-1.204012 0.646816,-0.329766 1.842216,-1.182722 2.656444,-1.895459 2.179778,-1.908074 9.102628,-6.897755 10.123471,-7.296544 0.485069,-0.189491 2.469444,-1.122366 4.409722,-2.073056 5.883519,-2.882783 10.468422,-4.913534 11.093473,-4.913534 0.325632,0 1.249208,-0.3175 2.052391,-0.705555 1.20218,-0.58083 2.182294,-0.705556 5.544379,-0.705556 3.86617,0 4.19964,-0.05835 6.25084,-1.093796 1.74593,-0.88134 2.43171,-1.051436 3.53063,-0.875711 0.92708,0.148245 2.1729,-0.02766 3.89028,-0.549302 2.25909,-0.686178 2.75239,-0.72353 4.6614,-0.352957 1.17422,0.227936 2.96826,0.572639 3.98676,0.766006 2.56377,0.486743 5.55845,1.653048 6.70855,2.612699 0.53055,0.442698 1.50874,1.084009 2.17376,1.425136 0.66502,0.341127 3.37593,2.7844 6.02426,5.429495 2.64832,2.645095 5.39827,5.263401 6.11101,5.818457 0.71273,0.555057 1.29588,1.164529 1.29588,1.354383 0,0.189855 0.70319,1.028615 1.56265,1.863912 0.85946,0.835297 1.9547,2.289575 2.43388,3.231728 0.85012,1.671492 2.95722,5.122772 4.2162,6.905841 1.35397,1.917594 2.46392,5.796734 3.2584,11.387721 0.27571,1.940278 0.72559,4.162778 0.99973,4.938889 0.59421,1.682282 1.15423,4.501927 1.4714,7.4083335 0.12704,1.1641667 0.4604,3.1166019 0.74078,4.3387449 0.28039,1.222143 0.65278,4.000268 0.82754,6.17361119 0.72872,9.06285031 1.46724,16.96727741 1.60629,17.19226041 0.42412,0.686244 0.12226,6.791561 -0.5663,11.453717 -0.42984,2.910417 -0.76441,5.767917 -0.74348,6.350001 0.0209,0.582083 -0.11907,2.771486 -0.31109,4.865341 -0.48425,5.280345 0.31475,11.25906 2.63962,19.751669 0.68297,2.494862 1.49503,4.118648 3.51083,7.020203 0.85188,1.226199 1.87682,2.879484 2.27765,3.673966 1.01022,2.002357 2.91384,3.56454 6.23243,5.114584 5.06333,2.364973 9.22359,3.11952 12.35319,2.240503 1.16417,-0.326982 3.79672,-0.648997 5.85012,-0.715588 4.26032,-0.138163 5.37853,-0.51139 9.537,-3.183186 1.47737,-0.949204 2.95759,-1.884575 3.28939,-2.078603 0.33179,-0.194028 0.71662,-0.907444 0.85518,-1.58537 0.29032,-1.420462 1.25635,-1.821917 1.98973,-0.826877 0.45264,0.614138 0.54056,0.587844 1.66585,-0.49817 0.6534,-0.63059 1.40833,-1.146527 1.67763,-1.146527 0.2693,0 0.85198,-0.340407 1.29485,-0.756459 1.48008,-1.39047 5.79209,-1.610761 8.589,-0.438794 1.53806,0.644483 2.82209,2.759195 2.82209,4.647808 0,1.961658 -3.02532,7.970845 -5.45461,10.834467 -1.07455,1.266668 -1.95372,2.517356 -1.95372,2.779306 0,1.640162 -8.82786,12.000742 -11.20765,13.153559 -0.63441,0.307321 -1.47866,1.015444 -1.8761,1.573605 -0.39745,0.55816 -0.99422,1.01484 -1.32616,1.01484 -0.33194,0 -1.63082,1.04376 -2.8864,2.31947 -2.17522,2.21011 -3.93807,3.49245 -4.3015,3.12903 -0.0923,-0.0923 -1.18398,0.86448 -2.42597,2.12617 -1.35244,1.37388 -2.55679,2.29581 -3.00269,2.29855 -0.40949,0.003 -1.36199,0.43076 -2.11667,0.95167 -1.63229,1.12669 -5.54929,2.57697 -6.96582,2.57913 -0.59516,9.1e-4 -1.57885,0.454 -2.40328,1.10696 -1.21947,0.96584 -1.79735,1.14571 -4.57625,1.42445 -2.46305,0.24705 -3.63192,0.20395 -5.18145,-0.19106 -1.10049,-0.28055 -2.79465,-0.62466 -3.76479,-0.7647 -2.37019,-0.34214 -3.47987,-0.95841 -5.94057,-3.29917 -2.05768,-1.95738 -3.89816,-4.39639 -5.43509,-7.20256 -1.03166,-1.88364 -2.836,-3.7438 -6.01074,-6.196672 -4.89875,-3.784883 -5.57256,-4.179175 -7.54681,-4.416165 -2.19239,-0.263176 -5.78351,0.256611 -6.60095,0.955438 -0.31274,0.267358 -0.84643,0.584628 -1.18598,0.705044 -0.46626,0.165353 -0.61736,0.614487 -0.61736,1.83503 0,0.88885 -0.26037,2.119595 -0.5786,2.734975 -0.48586,0.93955 -0.53727,1.74251 -0.32076,5.00957 0.14181,2.13987 0.25661,6.58943 0.25511,9.8879 -0.002,3.29847 0.14101,6.94972 0.3167,8.11389 1.01902,6.75241 1.74083,13.75997 1.94408,18.87361 0.12725,3.20146 0.37356,5.99868 0.54735,6.21604 0.18691,0.23376 0.17135,1.41511 -0.0381,2.89177 -0.19474,1.37311 -0.26181,2.73701 -0.14904,3.03089 0.11277,0.29388 -0.0528,1.05113 -0.36789,1.68279 -0.34834,0.69826 -0.48894,1.53087 -0.35867,2.12399 0.11785,0.53655 0.0299,1.89112 -0.19535,3.01017 -0.22529,1.11904 -0.47677,2.38511 -0.55883,2.81348 -0.0821,0.42837 -0.88669,1.28625 -1.78805,1.90641 -0.90136,0.62015 -1.91677,1.38092 -2.25646,1.69059 -0.3397,0.30967 -1.02637,0.8458 -1.52595,1.19141 -0.49957,0.34561 -1.03987,1.13606 -1.20066,1.75657 -0.23157,0.89363 -0.5448,1.19256 -1.50654,1.43774 -0.66781,0.17025 -2.37536,0.69253 -3.79456,1.16062 -1.41921,0.46809 -2.73011,0.75853 -2.91313,0.64542 -0.18301,-0.11311 -0.581,0.0426 -0.88441,0.346 -0.41147,0.41148 -1.28485,0.55029 -3.43688,0.54626 -1.58687,-0.003 -3.05282,-0.12203 -3.25767,-0.26458 z m 2.8419,-3.61057 c 0.11992,-0.19403 0.0499,-0.35278 -0.15557,-0.35278 -0.20548,0 -0.3736,0.15875 -0.3736,0.35278 0,0.19403 0.07,0.35278 0.15557,0.35278 0.0856,0 0.25368,-0.15875 0.3736,-0.35278 z M 34.836798,133.74052 c 0,-0.35761 -1.074485,-0.84474 -1.32054,-0.59868 -0.08867,0.0887 -0.05658,0.33053 0.07131,0.53747 0.28145,0.45539 1.249228,0.50281 1.249228,0.0612 z m 31.30903,-0.37061 c 0.436562,-0.36419 0.79375,-0.83924 0.79375,-1.05566 0,-0.55148 -1.972877,0.50498 -2.239234,1.19909 -0.284375,0.74107 0.475626,0.66566 1.445484,-0.14343 z m 43.127082,-14.02519 c 0,-0.9681 -0.10268,-1.20259 -0.3975,-0.90777 -0.22455,0.22454 -0.29837,0.79249 -0.16967,1.30528 0.32444,1.29268 0.56717,1.12256 0.56717,-0.39751 z m -42.752256,-7.84489 c 0.08819,-0.26459 -0.0441,-0.39688 -0.308681,-0.30868 -0.254661,0.0849 -0.532474,0.36269 -0.617361,0.61736 -0.08819,0.26458 0.0441,0.39687 0.308681,0.30868 0.254661,-0.0849 0.532474,-0.3627 0.617361,-0.61736 z m -6.98941,-1.60955 c 0,-0.29104 -0.15875,-0.52917 -0.352778,-0.52917 -0.194028,0 -0.352778,0.23813 -0.352778,0.52917 0,0.29104 0.15875,0.52916 0.352778,0.52916 0.194028,0 0.352778,-0.23812 0.352778,-0.52916 z m 112.530716,-2.55764 c -0.0122,-0.59701 -0.64768,-1.2206 -1.01349,-0.99452 -0.65273,0.40341 -0.43978,1.2591 0.31333,1.2591 0.38806,0 0.70313,-0.11906 0.70016,-0.26458 z m -50.30203,-7.351976 c 0.23992,-0.625241 -0.007,-1.202887 -0.51339,-1.202887 -0.18258,0 -0.33196,0.396875 -0.33196,0.881944 0,0.986839 0.51482,1.182289 0.84535,0.320943 z M 65.881244,98.777777 c 0,-0.388056 -0.140235,-0.705556 -0.311633,-0.705556 -0.171398,0 -0.394661,0.3175 -0.496139,0.705556 -0.119917,0.458563 -0.01082,0.705556 0.311632,0.705556 0.272877,0 0.49614,-0.3175 0.49614,-0.705556 z m 55.915276,-1.352315 c 0,-0.690588 -0.68739,-0.632071 -0.82261,0.07003 -0.0825,0.428483 0.0388,0.602802 0.34795,0.499769 0.26107,-0.08702 0.47466,-0.34343 0.47466,-0.569796 z m 7.0096,-0.146991 c 0.33736,-1.258856 0.26104,-1.675694 -0.30682,-1.675694 -0.36957,0 -0.52916,0.372377 -0.52916,1.234722 0,1.385428 0.51068,1.65481 0.83598,0.440972 z m 41.85013,-3.749165 c 0,-0.17027 -0.21959,-0.491822 -0.48797,-0.71456 -0.37441,-0.31073 -0.53295,-0.287759 -0.68125,0.0987 -0.1063,0.277025 -0.0984,0.598576 0.0176,0.71456 0.32208,0.322075 1.15162,0.250976 1.15162,-0.0987 z m -69.49723,-2.336251 c 0,-0.291042 -0.15875,-0.529167 -0.35277,-0.529167 -0.19403,0 -0.35278,0.238125 -0.35278,0.529167 0,0.291041 0.15875,0.529166 0.35278,0.529166 0.19402,0 0.35277,-0.238125 0.35277,-0.529166 z m 60.12036,-1.986005 c -0.27831,-0.450312 -0.85369,-0.01969 -0.85369,0.638909 0,0.448449 0.0982,0.470056 0.52529,0.115597 0.2889,-0.23977 0.43668,-0.579298 0.3284,-0.754506 z M 79.120955,87.212764 c -0.318822,-0.830835 -0.869819,0.110221 -0.621197,1.060951 0.166377,0.636228 0.217793,0.64779 0.515448,0.11591 0.18185,-0.324948 0.229437,-0.854535 0.105749,-1.176861 z M 138.6299,86.013101 c -0.53887,-0.538873 -0.93649,-0.141247 -0.63761,0.637618 0.17647,0.459875 0.32946,0.505443 0.6433,0.191604 0.31384,-0.313839 0.31249,-0.51105 -0.006,-0.829222 z m -9.30886,-0.765162 c 0.0897,-0.466049 -0.055,-0.610817 -0.52107,-0.521065 -0.35494,0.06836 -0.70127,0.414689 -0.76963,0.76963 -0.0897,0.466049 0.055,0.610817 0.52107,0.521064 0.35494,-0.06835 0.70127,-0.414688 0.76963,-0.769629 z m 18.37986,-0.669468 c -0.0136,-0.242535 -0.14501,-0.747935 -0.29193,-1.123111 -0.35394,-0.903827 -0.87298,-0.111139 -0.56422,0.861685 0.24418,0.769356 0.8959,0.968358 0.85615,0.261426 z m 28.34923,-0.264583 c 0.11992,-0.458563 0.0108,-0.705556 -0.31163,-0.705556 -0.27288,0 -0.49614,0.3175 -0.49614,0.705556 0,0.388055 0.14024,0.705555 0.31163,0.705555 0.1714,0 0.39466,-0.3175 0.49614,-0.705555 z M 88.811801,83.743081 c 0,-0.291041 -0.15875,-0.431053 -0.352778,-0.311138 -0.194028,0.119916 -0.352778,0.456154 -0.352778,0.747196 0,0.291041 0.15875,0.431054 0.352778,0.311138 0.194028,-0.119916 0.352778,-0.456154 0.352778,-0.747196 z m 32.744679,-0.779742 c 0.0726,-0.493218 -0.074,-0.766118 -0.41158,-0.766118 -0.59138,0 -0.91594,0.653861 -0.66406,1.337827 0.24951,0.677503 0.94632,0.307142 1.07564,-0.571709 z m 25.28727,-1.471673 c -0.17068,-0.27617 -0.37362,-0.296662 -0.6088,-0.06148 -0.19403,0.194028 -0.23757,0.539192 -0.0968,0.767032 0.17068,0.27617 0.37362,0.296662 0.6088,0.06148 0.19403,-0.194028 0.23757,-0.539192 0.0968,-0.767032 z m 18.02285,-1.321131 c -0.38537,-0.385374 -0.64963,0.227492 -0.37295,0.864944 0.26235,0.604437 0.28137,0.603886 0.42755,-0.0124 0.0841,-0.354735 0.0596,-0.738381 -0.0546,-0.852547 z m 26.50799,0.755216 c -0.11722,-0.117225 -0.42149,-0.129758 -0.67615,-0.02785 -0.28142,0.112616 -0.19783,0.196209 0.21313,0.213137 0.37189,0.01532 0.58025,-0.06806 0.46302,-0.185287 z m -91.2739,-0.639955 c 0,-0.08115 -0.0964,-0.398645 -0.214132,-0.705555 -0.302479,-0.788247 -0.844201,-0.693573 -0.844201,0.147536 0,0.391975 0.235185,0.705555 0.529167,0.705555 0.291041,0 0.529166,-0.06639 0.529166,-0.147536 z m -6.060881,-1.348165 c -0.062,-0.434581 -0.390543,-0.843096 -0.730091,-0.907812 -0.707654,-0.134875 -0.82601,0.642642 -0.194028,1.274624 0.656929,0.65693 1.048029,0.501689 0.924119,-0.366812 z M 62.887953,76.544169 c 0.122841,-0.198762 0.1053,-0.873449 -0.03898,-1.499305 -0.258519,-1.121393 -0.266074,-1.125111 -0.520142,-0.255976 -0.376292,1.287251 -0.374797,2.116666 0.0038,2.116666 0.182577,0 0.432465,-0.162623 0.555307,-0.361385 z m 17.749511,-2.284448 c 0.06877,-1.86267 -0.01693,-2.293056 -0.456611,-2.293056 -0.430999,0 -0.541275,0.467173 -0.541275,2.293056 0,1.641147 0.129813,2.293056 0.456612,2.293056 0.318115,0 0.482291,-0.695516 0.541274,-2.293056 z M 138.9033,74.7796 c -0.85558,-0.540918 -1.107,-0.393553 -0.68234,0.399939 0.29965,0.559891 0.49794,0.643359 0.80321,0.338088 0.30528,-0.30527 0.27543,-0.487475 -0.12087,-0.738027 z m -19.40465,-1.510838 c -0.006,-1.854122 -0.33265,-3.11709 -0.74084,-2.864809 -0.35361,0.21854 -0.41215,2.743131 -0.0914,3.939995 0.32847,1.22555 0.83755,0.56783 0.8322,-1.075186 z m -18.65599,0.373598 c -0.16149,-0.436563 -0.43419,-0.79375 -0.60599,-0.79375 -0.1718,0 -0.363097,0.357187 -0.425099,0.79375 -0.08526,0.600301 0.06243,0.79375 0.605989,0.79375 0.59716,0 0.66906,-0.134255 0.4251,-0.79375 z m -7.09197,-2.225681 c 0,-0.279591 -0.141766,-0.508347 -0.315035,-0.508347 -0.389382,0 -0.768697,0.915342 -0.493397,1.190642 0.308793,0.308793 0.808432,-0.112889 0.808432,-0.682295 z m 45.50834,0.373598 c 0,-0.291042 -0.23813,-0.529167 -0.52917,-0.529167 -0.29104,0 -0.52917,0.238125 -0.52917,0.529167 0,0.291041 0.23813,0.529166 0.52917,0.529166 0.29104,0 0.52917,-0.238125 0.52917,-0.529166 z m -23.98889,-0.331958 c 0,-0.561845 -0.64007,-1.085847 -0.949,-0.776916 -0.29021,0.290209 0.16281,1.285262 0.58515,1.285262 0.20011,0 0.36385,-0.228756 0.36385,-0.508346 z m 49.03611,-0.48734 c 0,-0.159572 -0.49514,-1.204308 -1.10031,-2.321635 -0.73737,-1.361408 -1.21729,-1.914529 -1.45494,-1.676875 -0.6797,0.679698 1.03212,4.288641 2.03421,4.288641 0.28657,0 0.52104,-0.130559 0.52104,-0.290131 z M 96.666198,68.580787 c 0.282616,-0.282616 -0.08727,-1.200233 -0.483807,-1.200233 -0.173269,0 -0.315034,0.3175 -0.315034,0.705556 0,0.687629 0.37418,0.919338 0.798841,0.494677 z M 70.677345,65.713212 c -0.198366,-2.319062 -0.29795,-2.435267 -0.546394,-0.637591 -0.133173,0.963607 -0.166807,2.146049 -0.07474,2.62765 0.164738,0.861772 0.171883,0.863489 0.4512,0.108424 0.156096,-0.421968 0.232568,-1.366285 0.169938,-2.098483 z m 43.711625,0.673416 c 0.14612,-1.154601 -0.61406,-2.195628 -1.06752,-1.46191 -0.13619,0.220355 -0.0709,0.577314 0.14498,0.793241 0.21593,0.215927 0.39259,0.784179 0.39259,1.26278 0,1.156842 0.35934,0.754002 0.52995,-0.594111 z m 38.59525,-1.339062 c -0.5126,-0.617642 -0.83991,-0.376217 -0.5421,0.399856 0.11961,0.311707 0.38506,0.463171 0.58988,0.336585 0.25574,-0.158059 0.24078,-0.388751 -0.0478,-0.736441 z m 8.44672,-0.137105 c -0.20304,-0.58244 -0.51228,-1.147434 -0.68721,-1.255542 -0.43291,-0.267557 -0.40229,0.79236 0.0471,1.632161 0.57879,1.081474 1.05141,0.803379 0.64006,-0.376619 z m -34.69553,0.353427 c -0.11991,-0.194028 0.10884,-0.352778 0.50835,-0.352778 0.41048,0 0.72638,-0.23013 0.72638,-0.529167 0,-0.685949 -0.51035,-0.673981 -1.21277,0.02844 -0.48972,0.489721 -0.47803,1.206281 0.0197,1.206281 0.097,0 0.0783,-0.15875 -0.0416,-0.352777 z M 73.497292,63.677176 c 0.379887,-1.513593 -0.538201,-2.721764 -1.051601,-1.383867 -0.262949,0.685234 0.101572,2.265023 0.522632,2.265023 0.169297,0 0.407333,-0.39652 0.528969,-0.881156 z m 40.361728,-0.706344 c 0,-0.485069 -0.15875,-0.881944 -0.35277,-0.881944 -0.39412,0 -0.48356,1.162742 -0.1176,1.528703 0.38889,0.388882 0.47037,0.276834 0.47037,-0.646759 z m 29.63334,-0.352778 c 0,-0.679097 -0.16812,-1.234722 -0.3736,-1.234722 -0.20548,0 -0.27119,0.165704 -0.14602,0.368231 0.12517,0.202527 0.0415,0.592448 -0.18594,0.866491 -0.42745,0.515046 -0.20969,1.234722 0.3736,1.234722 0.18258,0 0.33196,-0.555625 0.33196,-1.234722 z M 70.701659,60.124897 c 0.2791,-0.727324 -0.452413,-1.486789 -0.951424,-0.987778 -0.404001,0.404001 -0.09918,1.540657 0.413158,1.540657 0.179358,0 0.421578,-0.248795 0.538266,-0.552879 z m 64.231851,-0.315726 c -0.1782,-1.330673 -0.61337,-1.506994 -0.61337,-0.248524 0,0.614421 0.16418,1.117129 0.36484,1.117129 0.20067,0 0.3125,-0.390872 0.24853,-0.868605 z m -21.25313,-1.25518 c -0.36908,-1.162853 -0.74792,-0.783268 -0.58773,0.588882 0.11916,1.02069 0.21855,1.165349 0.47985,0.698437 0.18125,-0.323886 0.2298,-0.903179 0.10788,-1.287319 z m -24.868579,-6.51927 c 0,-1.067153 -0.15875,-1.940278 -0.352778,-1.940278 -0.388641,0 -0.494088,3.268875 -0.117593,3.64537 0.424231,0.424231 0.470371,0.256976 0.470371,-1.705092 z M 69.566674,49.33868 c -0.337172,-1.427594 -0.748703,-2.746439 -0.914513,-2.930765 -0.432753,-0.48108 -0.375041,1.604095 0.09945,3.593271 0.652752,2.736475 0.643968,2.717255 1.054321,2.306902 0.263189,-0.26319 0.192399,-1.141756 -0.239258,-2.969408 z m 5.625125,0.551339 c 0.1176,-0.30646 0.114432,-1.178725 -0.007,-1.938366 -0.141941,-0.887647 -0.06337,-1.57093 0.219898,-1.912243 0.351712,-0.423787 0.352033,-0.637984 0.0016,-1.060245 -0.824394,-0.993333 -1.010175,-0.529001 -0.988039,2.469444 0.02093,2.834389 0.293135,3.693463 0.773593,2.44141 z m 7.622779,-1.756674 c 0,-0.302492 -0.15875,-0.451874 -0.352777,-0.331958 -0.194028,0.119916 -0.352778,0.36741 -0.352778,0.549987 0,0.182577 0.15875,0.331958 0.352778,0.331958 0.194027,0 0.352777,-0.247494 0.352777,-0.549987 z m 8.348305,-0.03875 c -0.129775,-0.129775 0.01747,-0.515988 0.327216,-0.858251 0.39586,-0.437421 0.492567,-0.943751 0.325517,-1.704323 -0.239683,-1.09127 -0.714907,-1.456599 -0.833892,-0.641054 -0.453084,3.10552 -0.456145,3.439583 -0.03151,3.439583 0.246745,0 0.342448,-0.10618 0.212673,-0.235955 z m 7.521879,-1.263351 c -0.0084,-0.769121 -0.421221,-2.028472 -0.66494,-2.028472 -0.298295,0 -0.451291,1.729789 -0.190341,2.152014 0.289393,0.468248 0.860844,0.385704 0.855281,-0.123542 z M 132.102,44.07947 c -0.0931,-1.367957 -0.248,-2.565975 -0.34428,-2.662262 -0.2632,-0.263195 -0.53678,1.301152 -0.43786,2.503624 0.0479,0.582083 0.10754,1.41552 0.13256,1.852083 0.025,0.436563 0.21949,0.79375 0.43215,0.79375 0.25979,0 0.33113,-0.816041 0.21743,-2.487195 z m 25.21337,-3.586462 c -0.25314,-0.253141 -0.41745,-0.273969 -0.41745,-0.05292 0,0.470881 0.41719,0.888079 0.65263,0.652639 0.10025,-0.100248 -0.006,-0.370123 -0.23518,-0.599722 z m -25.1119,0.281676 c 0,-0.08114 -0.0964,-0.398644 -0.21413,-0.705555 -0.30248,-0.788247 -0.8442,-0.693573 -0.8442,0.147536 0,0.391975 0.23518,0.705555 0.52916,0.705555 0.29104,0 0.52917,-0.06639 0.52917,-0.147536 z m 25.36514,-4.4644 c 0.0221,-1.513302 -0.0801,-2.825474 -0.22705,-2.915938 -0.14699,-0.09046 -0.31333,1.367863 -0.36963,3.240726 -0.0659,2.191593 0.015,3.23083 0.22705,2.915938 0.18119,-0.269097 0.34752,-1.727423 0.36963,-3.240726 z m -14.42903,1.613325 c 0,-0.485069 -0.15875,-0.881944 -0.35278,-0.881944 -0.19402,0 -0.35277,0.396875 -0.35277,0.881944 0,0.48507 0.15875,0.881945 0.35277,0.881945 0.19403,0 0.35278,-0.396875 0.35278,-0.881945 z M 72.231245,36.023834 c 0,-0.753835 -0.242841,-1.904772 -0.539646,-2.557639 l -0.539645,-1.18703 0.235447,1.5875 c 0.129496,0.873125 0.224204,2.024062 0.210462,2.557639 -0.01374,0.533576 0.123148,0.970139 0.304199,0.970139 0.18105,0 0.329183,-0.616774 0.329183,-1.370609 z M 58.047498,35.050665 c -0.102804,-0.485006 -0.191514,-0.396295 -0.342054,0.342054 -0.131254,0.643756 -0.08209,0.87572 0.138802,0.654833 0.188129,-0.18813 0.279593,-0.636729 0.203252,-0.996887 z m 45.933752,-0.302056 c 0,-1.045106 -0.54623,-1.176541 -0.80335,-0.193303 -0.1506,0.575891 0.0219,0.828459 0.71515,1.047397 0.0485,0.01532 0.0882,-0.369024 0.0882,-0.854094 z m -35.635963,0.264584 c -0.003,-0.145521 -0.15929,-0.502709 -0.347376,-0.79375 -0.276533,-0.427905 -0.343008,-0.377274 -0.347376,0.264583 -0.003,0.436562 0.153348,0.79375 0.347376,0.79375 0.194028,0 0.350347,-0.119063 0.347376,-0.264583 z m 89.586163,-5.291667 c 0.0136,-0.242535 -0.13395,-0.440972 -0.32798,-0.440972 -0.19403,0 -0.34162,0.515937 -0.32798,1.146527 0.0208,0.9608 0.0739,1.032234 0.32798,0.440973 0.16675,-0.388056 0.31435,-0.903993 0.32798,-1.146528 z M 71.384578,28.363331 c -0.170761,-0.444996 -0.34063,-0.506036 -0.622852,-0.223814 -0.213431,0.21343 -0.282397,0.663397 -0.153259,0.999925 0.170761,0.444997 0.34063,0.506037 0.622852,0.223815 0.21343,-0.213431 0.282397,-0.663397 0.153259,-0.999926 z M 55.128246,25.161244 c -0.253798,-0.975525 -0.265348,-0.979667 -0.56267,-0.201825 -0.3707,0.969808 -0.03933,2.058914 0.471126,1.548454 0.198055,-0.198055 0.237895,-0.784102 0.09154,-1.346629 z m 15.550776,-0.32569 c -0.170761,-0.444997 -0.34063,-0.506037 -0.622852,-0.223815 -0.21343,0.213431 -0.282397,0.663397 -0.153259,0.999926 0.170761,0.444996 0.34063,0.506036 0.622852,0.223814 0.213431,-0.21343 0.282397,-0.663397 0.153259,-0.999925 z m 76.914628,-5.973583 c -0.24575,-0.640423 -0.92629,-0.683709 -0.92629,-0.05892 0,0.642219 0.83663,1.441231 0.99901,0.954092 0.0692,-0.207705 0.0365,-0.610533 -0.0727,-0.895174 z m -20.48707,-0.605723 c -0.0747,-0.242535 -0.23151,-0.877535 -0.34842,-1.411111 -0.12118,-0.553031 -0.44925,-0.970139 -0.76305,-0.970139 -0.43631,0 -0.49948,0.237791 -0.30457,1.146528 0.13524,0.63059 0.31598,1.26559 0.40162,1.411111 0.26359,0.44785 1.15878,0.292193 1.01442,-0.176389 z M 73.369246,14.10979 c -1.297165,-0.790882 -2.328461,-0.924225 -2.111384,-0.272995 0.149071,0.447214 1.336526,0.884652 2.560883,0.943386 0.534806,0.02565 0.426025,-0.136584 -0.449499,-0.670391 z m 7.715438,-3.410846 c 2.586425,-1.2707637 6.705792,-5.1149236 8.251609,-7.7003353 2.391528,-3.9998827 3.313379,-9.3230867 2.361626,-13.6371547 -1.024011,-4.641594 -5.312078,-9.492068 -10.64723,-12.04368 -2.560772,-1.224725 -3.419033,-1.456799 -5.877935,-1.589393 l -2.879325,-0.155264 -0.554123,1.071556 c -0.332384,0.64276 -1.015377,1.229062 -1.706787,1.46516 -0.770136,0.26298 -1.750973,1.180056 -2.95554,2.763411 -1.612375,2.119403 -2.280389,3.569975 -3.663345,7.954841 -0.43995,1.3949259 -0.251115,9.711903 0.24965,10.99552366 0.227083,0.58208334 0.585301,1.72645574 0.796042,2.54304984 0.210741,0.816594 0.894697,2.153707 1.519903,2.9713622 1.375487,1.7988862 4.97145,4.4012891 6.428404,4.6522436 0.582084,0.1002617 2.323933,0.3629217 3.870777,0.5836887 1.546844,0.220767 2.88299,0.471941 2.969213,0.558164 0.259782,0.259781 0.580674,0.184116 1.837061,-0.433173 z M 128.96246,-1.0693342 c 4.23027,-1.9584383 7.9557,-5.5969706 10.0445,-9.8102098 1.33624,-2.695277 1.48491,-3.251848 1.46821,-5.496509 -0.0315,-4.243078 -0.67038,-6.346941 -3.33597,-10.98645 -1.70592,-2.969172 -5.13965,-4.506744 -11.28573,-5.053577 -3.57988,-0.318511 -4.10741,-0.294547 -4.48608,0.203793 -0.54473,0.716888 -3.10409,1.873395 -4.14583,1.873395 -1.14969,0 -3.98632,2.651845 -4.86315,4.546345 -0.41423,0.894997 -0.8851,1.718519 -1.04639,1.830049 -0.63866,0.441631 -2.07592,5.216601 -2.21095,7.345398 -0.0787,1.241083 -0.28495,2.398334 -0.45828,2.571669 -0.34066,0.340657 1.20279,6.6381234 2.15759,8.803255 1.12968,2.5616761 5.23946,4.86084786 8.79507,4.92030115 1.01656,0.016998 2.64205,0.15742107 3.61219,0.31205136 2.23159,0.35569347 3.00586,0.21314345 5.75482,-1.05951071 z M 81.050689,-28.53726 c 0,-0.173269 -0.238125,-0.406411 -0.529166,-0.518094 -0.322337,-0.123693 -0.529167,-5.59e-4 -0.529167,0.315034 0,0.284952 0.238125,0.518095 0.529167,0.518095 0.291041,0 0.529166,-0.141766 0.529166,-0.315035 z m -0.858204,-3.482985 c -0.319746,-0.319746 -1.303447,0.26483 -1.073026,0.637658 0.158058,0.255745 0.388751,0.240778 0.73644,-0.04778 0.278457,-0.231099 0.42992,-0.496544 0.336586,-0.589879 z m 28.061055,-1.243017 c -0.56889,-0.568889 -0.70913,-0.187336 -0.29688,0.807703 0.31646,0.763842 0.38624,0.794255 0.52113,0.227112 0.0857,-0.360158 -0.0153,-0.825825 -0.22425,-1.034815 z m 39.8197,-1.589902 c -0.18896,-0.330553 -0.67337,-1.513818 -1.07646,-2.629478 -0.40309,-1.11566 -0.89722,-2.028472 -1.09807,-2.028472 -0.21136,0 -0.25597,0.260035 -0.10592,0.617361 0.303,0.721559 1.53561,3.934232 1.76813,4.608471 0.0879,0.254832 0.31641,0.366535 0.50783,0.248228 0.22678,-0.140156 0.22834,-0.424508 0.004,-0.81611 z m -23.80727,-1.130172 c 0.13317,-0.215481 -0.40791,-0.352778 -1.39029,-0.352778 -0.88458,0 -1.60832,0.15875 -1.60832,0.352778 0,0.194027 0.62563,0.352777 1.39029,0.352777 0.76466,0 1.4884,-0.15875 1.60832,-0.352777 z m 4.05694,-0.705556 c -0.39209,-0.732638 -1.41111,-0.979182 -1.41111,-0.34141 0,0.284204 0.94932,0.860398 1.68811,1.024604 0.0553,0.0123 -0.0693,-0.295138 -0.277,-0.683194 z m -25.23869,-1.041673 c 0.60218,-0.665399 0.59145,-0.696926 -0.31453,-0.924312 -1.13967,-0.286039 -1.39488,-0.07973 -1.08994,0.881066 0.28948,0.912078 0.60928,0.921925 1.40447,0.04325 z m -24.4959,-10.079352 c 0.245435,-0.295731 0.336634,-0.647304 0.202664,-0.781273 -0.294247,-0.294247 -1.347718,0.32318 -1.541057,0.903196 -0.200973,0.602918 0.813528,0.5105 1.338393,-0.121923 z m 56.77581,-2.372725 c -0.008,-0.242535 -0.47869,-0.98408 -1.04623,-1.647878 -0.91742,-1.073007 -1.05961,-1.134712 -1.28161,-0.556177 -0.18458,0.481009 0.0618,0.9108 0.94472,1.647878 1.36389,1.138628 1.40257,1.154181 1.38312,0.556177 z m -4.92455,-4.80955 c 0,-0.171398 -0.3175,-0.394661 -0.70556,-0.49614 -0.76438,-0.199891 -0.98679,0.282718 -0.26458,0.574135 0.69504,0.280453 0.97014,0.258336 0.97014,-0.078 z"
       id="path1" /></g></svg>
